<svg id="svg" version="1.1" xmlns="http://www.w3.org/2000/svg" xmlns:xlink="http://www.w3.org/1999/xlink" width="400" height="376.47058823529414" viewBox="0, 0, 400,376.47058823529414"><g id="svgg"><path id="path0" d="M202.102 156.144 C 201.395 156.851,201.175 222.056,201.874 223.893 L 202.241 224.859 249.727 224.859 C 302.399 224.859,299.432 224.718,299.438 227.222 C 299.442 229.102,297.951 235.435,297.145 236.963 C 296.747 237.716,296.422 238.655,296.422 239.049 C 296.422 239.443,296.087 240.423,295.677 241.227 C 295.267 242.030,294.736 243.295,294.496 244.037 C 294.256 244.779,293.659 246.079,293.170 246.926 C 292.680 247.773,292.279 248.674,292.279 248.928 C 292.279 249.183,291.855 249.947,291.337 250.626 C 290.819 251.305,290.395 252.046,290.395 252.274 C 290.395 252.502,290.068 252.917,289.669 253.197 C 289.269 253.477,288.832 254.146,288.697 254.683 C 288.562 255.221,288.041 256.017,287.540 256.453 C 287.039 256.889,286.629 257.503,286.629 257.817 C 286.629 258.131,286.278 258.683,285.849 259.043 C 285.420 259.404,284.829 260.207,284.536 260.829 C 284.243 261.450,283.407 262.721,282.679 263.653 C 281.951 264.586,281.160 265.726,280.922 266.189 C 280.683 266.651,280.175 267.128,279.792 267.250 C 279.409 267.371,279.096 267.613,279.096 267.788 C 279.096 268.183,274.448 273.070,274.072 273.070 C 273.921 273.070,273.201 273.667,272.471 274.397 C 271.741 275.126,270.518 276.121,269.753 276.608 C 268.988 277.094,268.039 277.853,267.644 278.294 C 267.249 278.735,266.703 279.096,266.429 279.096 C 266.155 279.096,265.680 279.477,265.374 279.944 C 265.069 280.410,264.005 281.213,263.012 281.729 C 262.018 282.244,260.782 283.028,260.264 283.470 C 259.746 283.912,258.870 284.507,258.318 284.792 C 257.766 285.077,256.156 285.951,254.740 286.735 C 253.324 287.518,250.640 288.837,248.776 289.668 C 246.911 290.498,244.783 291.496,244.047 291.885 C 243.310 292.275,242.039 292.714,241.222 292.861 C 240.405 293.007,239.473 293.356,239.152 293.636 C 238.830 293.915,237.430 294.305,236.039 294.502 C 234.649 294.699,232.963 295.190,232.293 295.593 C 231.576 296.024,230.031 296.417,228.542 296.547 C 227.149 296.669,225.506 297.029,224.889 297.348 C 224.211 297.698,221.864 298.074,218.946 298.300 C 216.294 298.505,213.107 298.926,211.864 299.236 C 208.706 300.024,193.315 300.020,189.831 299.230 C 188.484 298.925,185.491 298.520,183.180 298.330 C 180.868 298.139,178.488 297.731,177.891 297.422 C 177.294 297.113,175.466 296.674,173.830 296.447 C 172.194 296.219,170.589 295.792,170.263 295.497 C 169.937 295.202,168.624 294.792,167.346 294.586 C 166.067 294.380,164.629 293.957,164.149 293.646 C 163.669 293.336,162.429 292.875,161.394 292.622 C 156.853 291.516,144.474 284.674,138.288 279.852 C 136.559 278.504,134.817 277.166,134.417 276.878 C 134.018 276.590,132.975 275.700,132.100 274.901 C 131.225 274.101,130.382 273.446,130.228 273.446 C 130.010 273.446,126.501 270.437,124.185 268.264 C 123.184 267.324,118.067 261.422,117.577 260.640 C 117.251 260.122,116.765 259.444,116.495 259.134 C 115.520 258.009,113.535 255.442,112.429 253.875 C 111.808 252.994,111.045 251.983,110.734 251.628 C 108.231 248.773,103.780 240.894,100.399 233.333 C 99.843 232.090,99.060 230.447,98.658 229.681 C 98.257 228.914,97.928 227.965,97.928 227.571 C 97.928 226.181,97.140 224.519,96.581 224.734 C 95.897 224.996,95.883 225.612,96.562 225.612 C 96.908 225.612,97.140 226.243,97.263 227.519 C 97.367 228.607,97.780 229.879,98.223 230.478 C 98.650 231.056,99.198 232.274,99.439 233.184 C 99.681 234.095,100.182 235.179,100.552 235.593 C 100.922 236.008,101.338 236.977,101.475 237.748 C 101.613 238.519,102.043 239.372,102.431 239.644 C 102.819 239.916,103.253 240.760,103.396 241.520 C 103.555 242.368,104.004 243.130,104.558 243.493 C 105.055 243.819,105.461 244.394,105.461 244.771 C 105.461 245.149,105.785 245.750,106.180 246.108 C 106.576 246.466,107.118 247.297,107.385 247.956 C 107.653 248.614,108.177 249.374,108.550 249.645 C 108.923 249.915,109.228 250.372,109.228 250.659 C 109.228 250.946,109.540 251.403,109.921 251.674 C 110.303 251.944,110.832 252.589,111.096 253.107 C 111.573 254.039,112.207 254.803,114.218 256.867 C 114.788 257.451,115.254 258.194,115.254 258.518 C 115.254 258.842,115.579 259.281,115.977 259.494 C 116.374 259.707,116.811 260.388,116.947 261.009 C 117.084 261.631,117.689 262.488,118.296 262.921 C 118.902 263.352,119.397 263.936,119.397 264.219 C 119.397 264.501,119.746 264.843,120.172 264.979 C 120.598 265.114,121.103 265.634,121.293 266.134 C 121.483 266.634,121.808 267.043,122.015 267.043 C 122.222 267.043,122.654 267.552,122.976 268.173 C 123.297 268.795,123.815 269.303,124.127 269.303 C 124.439 269.303,124.794 269.564,124.916 269.882 C 125.038 270.200,125.626 270.713,126.223 271.022 C 126.819 271.330,127.307 271.821,127.307 272.112 C 127.307 272.404,127.631 272.745,128.027 272.871 C 128.423 272.997,129.379 273.601,130.151 274.215 C 130.922 274.828,131.744 275.330,131.978 275.330 C 132.211 275.330,132.569 275.711,132.773 276.177 C 132.978 276.643,133.518 277.078,133.975 277.143 C 134.431 277.207,134.908 277.589,135.036 277.990 C 135.163 278.391,135.398 278.719,135.557 278.719 C 135.967 278.719,139.454 281.418,140.019 282.174 C 140.279 282.520,140.999 282.915,141.620 283.051 C 142.241 283.187,142.750 283.527,142.750 283.805 C 142.750 284.083,143.355 284.510,144.094 284.754 C 144.834 284.999,145.529 285.434,145.639 285.721 C 145.750 286.009,146.498 286.421,147.302 286.638 C 148.105 286.854,148.930 287.343,149.134 287.724 C 149.338 288.105,150.254 288.605,151.169 288.836 C 152.085 289.066,152.926 289.495,153.039 289.787 C 153.151 290.080,153.890 290.531,154.682 290.789 C 155.473 291.047,156.514 291.564,156.994 291.938 C 157.475 292.311,158.628 292.731,159.556 292.870 C 160.483 293.009,161.476 293.356,161.761 293.641 C 162.580 294.461,164.119 294.915,166.075 294.915 C 167.380 294.915,168.183 295.151,168.961 295.763 C 169.788 296.413,170.719 296.660,172.970 296.826 C 175.195 296.990,176.023 297.206,176.401 297.724 C 176.820 298.297,177.685 298.444,181.832 298.650 C 185.994 298.857,186.894 299.011,187.585 299.636 C 188.862 300.790,212.944 300.787,213.788 299.632 C 214.276 298.964,214.918 298.867,220.003 298.690 C 225.000 298.517,225.735 298.409,226.195 297.780 C 226.598 297.229,227.411 297.005,229.754 296.799 C 232.048 296.597,232.996 296.341,233.627 295.755 C 234.238 295.187,235.122 294.934,236.911 294.812 C 239.223 294.656,246.213 292.303,246.708 291.514 C 246.814 291.346,247.407 291.084,248.026 290.932 C 248.646 290.780,249.743 290.258,250.464 289.772 C 251.185 289.286,252.042 288.889,252.368 288.889 C 252.694 288.889,253.535 288.465,254.237 287.947 C 254.939 287.429,255.735 287.006,256.005 287.006 C 256.276 287.006,256.832 286.671,257.242 286.261 C 257.651 285.851,258.584 285.267,259.313 284.962 C 260.043 284.657,260.640 284.163,260.640 283.864 C 260.640 283.565,260.907 283.217,261.233 283.092 C 261.895 282.838,263.277 283.449,263.277 283.996 C 263.277 284.191,263.743 284.601,264.313 284.909 C 264.882 285.216,266.140 286.195,267.107 287.084 C 268.073 287.973,269.684 289.293,270.685 290.016 C 271.686 290.740,272.589 291.418,272.693 291.523 C 273.733 292.576,276.523 294.539,276.980 294.539 C 277.301 294.539,277.734 294.858,277.943 295.249 C 278.304 295.924,279.744 296.979,282.202 298.371 C 282.815 298.717,283.563 299.353,283.864 299.783 C 284.165 300.213,284.588 300.565,284.804 300.565 C 285.020 300.565,285.675 301.031,286.260 301.601 C 288.599 303.881,296.223 310.358,296.568 310.358 C 296.829 310.358,300.100 312.736,300.973 313.561 C 301.301 313.871,301.762 314.124,301.996 314.124 C 302.230 314.124,302.979 314.630,303.659 315.248 C 305.796 317.189,306.147 317.460,307.269 318.040 C 307.870 318.351,308.646 319.038,308.992 319.566 C 309.339 320.095,309.763 320.527,309.935 320.527 C 310.108 320.527,311.033 321.290,311.992 322.222 C 312.952 323.154,313.944 323.917,314.199 323.917 C 314.453 323.917,315.091 324.337,315.617 324.849 C 316.142 325.362,317.123 326.281,317.797 326.892 C 319.258 328.218,319.327 328.716,318.109 329.179 C 317.608 329.369,317.057 329.759,316.885 330.045 C 316.713 330.331,316.260 330.680,315.878 330.821 C 315.495 330.962,315.098 331.401,314.995 331.797 C 314.891 332.192,314.382 332.623,313.863 332.753 C 313.345 332.883,312.217 333.768,311.357 334.720 C 310.497 335.672,309.242 336.684,308.569 336.969 C 307.895 337.253,307.345 337.735,307.345 338.039 C 307.345 338.343,306.916 338.700,306.393 338.831 C 305.870 338.962,305.281 339.370,305.085 339.736 C 304.889 340.103,304.259 340.521,303.685 340.665 C 302.558 340.948,300.222 342.320,298.053 343.974 C 297.306 344.543,296.502 345.009,296.265 345.009 C 296.029 345.009,295.546 345.348,295.191 345.763 C 294.836 346.177,294.211 346.516,293.802 346.516 C 293.393 346.516,292.538 347.024,291.902 347.646 C 291.266 348.267,290.423 348.776,290.027 348.776 C 289.632 348.776,289.084 349.096,288.810 349.487 C 288.536 349.879,287.679 350.463,286.905 350.786 C 286.132 351.110,285.499 351.545,285.499 351.755 C 285.499 351.964,284.779 352.341,283.898 352.591 C 283.018 352.842,281.959 353.341,281.544 353.700 C 281.130 354.059,280.138 354.530,279.340 354.746 C 278.543 354.962,277.695 355.406,277.456 355.732 C 277.218 356.058,276.110 356.469,274.994 356.645 C 273.822 356.831,272.826 357.214,272.637 357.553 C 272.432 357.919,271.499 358.236,270.147 358.398 C 268.907 358.546,267.664 358.946,267.232 359.335 C 266.817 359.709,265.800 360.129,264.972 360.269 C 264.143 360.408,262.279 360.920,260.829 361.406 C 259.379 361.892,257.182 362.489,255.947 362.732 C 254.713 362.976,253.357 363.392,252.934 363.657 C 252.512 363.922,251.200 364.252,250.019 364.392 C 248.730 364.543,247.474 364.958,246.874 365.430 C 246.093 366.045,245.123 366.265,242.412 366.441 C 239.967 366.600,238.635 366.873,237.880 367.367 C 237.057 367.907,235.693 368.136,231.957 368.365 C 228.802 368.558,226.808 368.854,226.263 369.208 C 225.801 369.509,224.746 369.887,223.917 370.048 C 222.165 370.389,179.212 370.380,178.016 370.038 C 177.574 369.912,176.646 369.552,175.954 369.239 C 175.254 368.923,172.793 368.539,170.420 368.376 C 167.266 368.160,165.985 367.922,165.532 367.469 C 165.194 367.131,164.888 366.849,164.851 366.842 C 164.814 366.834,163.173 366.684,161.205 366.508 C 158.793 366.292,157.198 365.942,156.309 365.434 C 155.584 365.020,154.060 364.565,152.923 364.425 C 151.786 364.284,150.345 363.862,149.722 363.488 C 149.098 363.114,147.621 362.701,146.439 362.570 C 145.258 362.440,143.528 361.927,142.596 361.431 C 141.664 360.936,139.875 360.411,138.621 360.265 C 137.214 360.102,136.222 359.785,136.027 359.438 C 135.836 359.096,134.661 358.709,133.039 358.453 C 131.042 358.139,130.323 357.867,130.195 357.377 C 130.073 356.910,129.472 356.649,128.100 356.467 C 126.884 356.306,126.177 356.029,126.177 355.713 C 126.177 355.260,124.049 354.433,122.870 354.428 C 122.604 354.427,122.293 354.180,122.178 353.880 C 122.062 353.580,121.150 353.063,120.151 352.731 C 119.151 352.399,118.251 351.914,118.151 351.653 C 118.051 351.392,117.301 350.978,116.485 350.734 C 115.668 350.489,114.692 349.949,114.316 349.532 C 113.939 349.116,113.349 348.776,113.004 348.776 C 112.659 348.776,112.012 348.357,111.567 347.844 C 111.121 347.332,110.290 346.796,109.720 346.652 C 109.150 346.509,108.425 346.104,108.108 345.753 C 107.792 345.401,106.940 344.886,106.215 344.608 C 105.490 344.330,104.727 343.885,104.520 343.618 C 104.313 343.351,103.508 342.792,102.731 342.376 C 99.187 340.479,98.699 340.184,98.099 339.584 C 97.748 339.233,96.950 338.844,96.326 338.719 C 95.682 338.590,95.115 338.200,95.015 337.818 C 94.918 337.446,94.355 337.037,93.764 336.907 C 93.173 336.777,92.586 336.344,92.459 335.944 C 92.332 335.544,92.022 335.217,91.769 335.217 C 91.347 335.217,88.702 333.014,85.550 330.038 C 84.837 329.364,84.031 328.814,83.760 328.814 C 83.488 328.814,83.090 328.486,82.876 328.086 C 82.662 327.685,82.156 327.253,81.752 327.125 C 81.348 326.997,80.916 326.570,80.791 326.177 C 80.666 325.784,80.250 325.363,79.867 325.241 C 78.896 324.933,63.277 309.296,63.277 308.632 C 63.277 308.234,60.388 305.461,59.972 305.461 C 59.763 305.461,59.487 305.043,59.358 304.531 C 59.230 304.019,58.788 303.420,58.376 303.199 C 57.964 302.979,57.627 302.586,57.627 302.327 C 57.627 302.067,57.126 301.268,56.512 300.551 C 55.899 299.834,55.391 299.039,55.383 298.785 C 55.374 298.530,54.944 298.045,54.426 297.705 C 53.908 297.366,53.484 296.877,53.484 296.619 C 53.484 296.360,52.976 295.509,52.354 294.727 C 51.733 293.945,51.224 293.080,51.224 292.805 C 51.224 292.530,50.885 292.124,50.471 291.902 C 50.056 291.680,49.718 291.264,49.718 290.976 C 49.718 290.689,49.317 289.974,48.827 289.389 C 48.338 288.803,47.817 287.938,47.669 287.466 C 47.521 286.995,46.990 286.340,46.487 286.011 C 45.985 285.682,45.574 285.122,45.574 284.768 C 45.574 284.414,45.159 283.734,44.652 283.258 C 44.145 282.781,43.625 281.912,43.496 281.326 C 43.367 280.740,42.955 280.163,42.580 280.044 C 42.205 279.924,41.804 279.361,41.690 278.791 C 41.577 278.222,41.048 277.286,40.516 276.712 C 39.983 276.137,39.548 275.363,39.548 274.992 C 39.548 274.620,39.206 274.007,38.789 273.629 C 38.372 273.252,37.864 272.420,37.660 271.782 L 37.291 270.621 37.484 271.922 C 37.590 272.637,37.977 273.569,38.345 273.993 C 38.713 274.417,39.316 275.358,39.684 276.083 C 40.902 278.482,41.731 279.894,42.301 280.534 C 42.610 280.883,43.132 281.761,43.460 282.486 C 43.788 283.211,44.655 284.567,45.386 285.499 C 46.117 286.431,46.986 287.787,47.317 288.512 C 47.648 289.237,48.027 289.915,48.159 290.019 C 48.579 290.348,51.600 294.866,51.610 295.179 C 51.616 295.345,52.465 296.496,53.497 297.738 C 54.530 298.980,55.469 300.293,55.585 300.657 C 55.700 301.021,55.936 301.318,56.109 301.318 C 56.281 301.318,56.752 301.869,57.154 302.542 C 59.060 305.732,73.875 321.193,79.849 326.227 C 82.024 328.060,84.114 329.828,84.492 330.156 C 86.967 332.306,90.095 334.842,91.664 335.970 C 92.673 336.695,93.879 337.669,94.344 338.136 C 94.809 338.602,95.340 338.986,95.523 338.990 C 95.841 338.996,98.165 340.441,100.187 341.888 C 100.705 342.258,101.722 342.831,102.447 343.161 C 103.173 343.490,103.999 344.041,104.283 344.385 C 104.568 344.728,104.982 345.009,105.205 345.009 C 105.427 345.009,106.212 345.405,106.948 345.888 C 109.279 347.418,114.638 350.561,116.008 351.201 C 116.733 351.540,118.427 352.414,119.774 353.145 C 121.121 353.875,122.892 354.720,123.710 355.024 C 124.528 355.327,125.461 355.804,125.782 356.083 C 126.103 356.362,126.978 356.700,127.726 356.833 C 128.474 356.967,129.391 357.413,129.762 357.823 C 130.133 358.233,130.879 358.569,131.420 358.569 C 131.961 358.569,133.078 358.932,133.904 359.376 C 134.729 359.819,136.388 360.412,137.589 360.694 C 138.791 360.975,140.231 361.433,140.791 361.711 C 141.350 361.989,144.096 362.853,146.893 363.631 C 149.689 364.408,153.343 365.452,155.012 365.950 C 156.681 366.448,158.335 366.855,158.687 366.855 C 159.040 366.855,161.142 367.284,163.358 367.807 C 165.575 368.331,168.582 368.910,170.041 369.093 C 171.500 369.276,173.371 369.610,174.200 369.834 C 180.817 371.626,218.144 371.742,226.554 369.997 C 228.004 369.696,231.041 369.211,233.304 368.920 C 235.567 368.629,238.278 368.142,239.330 367.837 C 240.382 367.533,242.489 367.098,244.011 366.871 C 245.534 366.644,247.248 366.217,247.820 365.921 C 248.392 365.625,250.494 365.042,252.492 364.625 C 254.490 364.207,256.421 363.713,256.782 363.527 C 257.143 363.341,258.371 362.982,259.510 362.729 C 261.962 362.186,268.042 360.127,269.115 359.476 C 269.529 359.225,270.461 358.900,271.186 358.753 C 271.911 358.607,273.033 358.167,273.679 357.775 C 274.325 357.383,275.080 357.062,275.356 357.062 C 275.633 357.062,277.757 356.132,280.077 354.995 C 282.398 353.858,284.694 352.753,285.180 352.539 C 285.666 352.326,286.827 351.652,287.759 351.042 C 288.691 350.432,289.962 349.653,290.584 349.310 C 291.205 348.968,292.053 348.389,292.467 348.025 C 292.881 347.660,293.854 347.159,294.628 346.912 C 295.401 346.664,296.130 346.307,296.247 346.118 C 296.421 345.837,299.260 344.042,304.143 341.128 C 304.557 340.880,305.744 339.984,306.780 339.136 C 307.815 338.287,309.067 337.380,309.560 337.118 C 310.054 336.857,311.178 335.941,312.058 335.082 C 312.938 334.224,314.653 332.732,315.869 331.766 C 317.084 330.801,318.380 329.699,318.747 329.318 C 319.115 328.937,321.613 326.337,324.299 323.540 C 326.985 320.744,330.032 317.573,331.070 316.495 C 332.108 315.416,332.957 314.417,332.957 314.275 C 332.957 314.132,333.303 313.658,333.725 313.222 C 334.148 312.786,335.588 311.073,336.926 309.416 C 338.264 307.759,339.673 306.064,340.058 305.650 C 340.442 305.235,340.861 304.600,340.988 304.237 C 341.115 303.875,341.393 303.578,341.606 303.578 C 341.818 303.578,342.351 302.815,342.789 301.883 C 343.227 300.951,343.716 300.188,343.875 300.188 C 344.034 300.188,344.378 299.673,344.639 299.044 C 344.899 298.415,345.428 297.731,345.814 297.524 C 346.200 297.318,346.516 296.849,346.516 296.482 C 346.516 296.115,346.940 295.241,347.458 294.539 C 347.976 293.837,348.399 293.054,348.399 292.799 C 348.399 292.545,348.812 291.846,349.316 291.247 C 349.821 290.647,350.517 289.448,350.864 288.581 C 351.211 287.715,351.645 287.006,351.830 287.006 C 352.015 287.006,352.166 286.775,352.166 286.493 C 352.166 286.211,352.613 285.322,353.160 284.516 C 353.706 283.711,354.323 282.543,354.530 281.921 C 354.737 281.300,355.200 280.452,355.558 280.038 C 355.917 279.623,356.328 278.787,356.472 278.180 C 356.616 277.572,357.147 276.585,357.652 275.985 C 358.156 275.386,358.569 274.592,358.569 274.222 C 358.569 273.851,358.902 273.124,359.309 272.607 C 359.716 272.089,360.231 270.838,360.454 269.825 C 360.676 268.813,361.111 267.793,361.421 267.557 C 361.731 267.322,362.145 266.136,362.343 264.921 C 362.540 263.706,362.928 262.542,363.205 262.335 C 363.481 262.128,363.907 260.955,364.152 259.728 C 364.396 258.501,364.830 257.230,365.116 256.903 C 365.401 256.576,365.832 255.153,366.072 253.741 C 366.313 252.329,366.819 250.380,367.198 249.410 C 367.577 248.440,368.082 246.460,368.320 245.009 C 368.559 243.559,368.995 241.780,369.290 241.055 C 369.585 240.330,370.082 237.899,370.394 235.654 C 370.706 233.408,371.146 231.349,371.372 231.077 C 371.598 230.805,372.014 227.933,372.297 224.694 C 372.580 221.455,373.008 218.569,373.248 218.280 C 374.767 216.449,374.759 168.851,373.238 167.019 C 373.014 166.749,372.615 164.227,372.352 161.416 C 372.089 158.605,371.747 156.179,371.593 156.025 C 370.953 155.385,202.742 155.504,202.102 156.144 " stroke="none" fill="#3c98a3" fill-rule="evenodd"></path><path id="path1" d="M192.090 4.642 C 191.987 4.746,187.994 5.103,183.218 5.434 C 178.441 5.766,173.950 6.220,173.237 6.444 C 172.523 6.668,169.906 7.171,167.420 7.563 C 157.955 9.053,137.666 14.697,133.145 17.098 C 132.524 17.428,131.761 17.699,131.450 17.702 C 131.139 17.704,130.365 18.022,129.729 18.410 C 129.094 18.798,128.161 19.235,127.658 19.381 C 126.797 19.631,118.365 23.725,117.137 24.489 C 116.827 24.682,115.979 25.102,115.254 25.422 C 114.529 25.741,113.004 26.580,111.864 27.286 C 110.725 27.992,108.606 29.196,107.156 29.962 C 105.706 30.727,103.842 31.814,103.013 32.377 C 102.185 32.940,100.829 33.825,100.000 34.345 C 95.088 37.427,93.450 38.622,87.949 43.141 C 85.669 45.014,82.450 47.641,80.795 48.979 C 69.007 58.511,56.124 73.629,44.862 91.149 C 43.730 92.910,42.507 94.794,42.144 95.335 C 41.781 95.877,41.209 96.894,40.872 97.595 C 40.536 98.296,39.765 99.718,39.159 100.753 C 38.108 102.551,37.429 103.908,36.331 106.403 C 36.057 107.024,34.805 109.861,33.548 112.706 C 32.290 115.552,31.262 117.977,31.262 118.096 C 31.262 118.215,30.330 120.665,29.190 123.540 C 28.051 126.416,27.119 128.955,27.119 129.183 C 27.119 129.411,26.800 130.226,26.410 130.994 C 26.021 131.763,25.576 133.147,25.423 134.071 C 25.269 134.994,24.740 136.820,24.247 138.128 C 23.755 139.436,23.352 140.972,23.352 141.540 C 23.352 142.108,23.003 143.224,22.576 144.021 C 22.149 144.817,21.657 146.679,21.483 148.158 C 21.309 149.637,20.897 151.476,20.566 152.243 C 20.236 153.011,19.811 155.384,19.622 157.516 C 19.433 159.649,18.888 162.834,18.410 164.595 C 17.058 169.584,17.058 207.064,18.410 212.053 C 18.888 213.814,19.433 216.999,19.622 219.131 C 19.811 221.264,20.236 223.637,20.566 224.405 C 20.897 225.172,21.309 227.011,21.483 228.490 C 21.657 229.969,22.149 231.831,22.576 232.627 C 23.003 233.424,23.352 234.540,23.352 235.108 C 23.352 235.676,23.755 237.211,24.247 238.520 C 24.740 239.828,25.269 241.654,25.423 242.577 C 25.576 243.501,26.021 244.885,26.410 245.654 C 26.800 246.422,27.119 247.237,27.119 247.465 C 27.119 248.266,32.139 260.830,34.905 266.949 C 36.345 270.136,37.283 270.471,39.644 268.644 C 40.874 267.693,43.930 265.306,48.211 261.956 C 49.143 261.227,50.361 260.251,50.918 259.788 C 51.474 259.324,52.473 258.522,53.138 258.004 C 53.802 257.486,54.803 256.638,55.362 256.121 C 55.922 255.603,57.691 254.247,59.295 253.107 C 62.489 250.838,62.598 250.756,70.764 244.347 C 73.868 241.912,76.887 239.440,77.473 238.854 C 78.058 238.268,78.930 237.578,79.410 237.321 C 79.890 237.065,80.567 236.600,80.914 236.289 C 81.260 235.978,82.815 234.773,84.369 233.612 C 85.923 232.450,88.211 230.723,89.454 229.772 C 90.697 228.822,92.137 227.768,92.655 227.431 C 93.173 227.094,94.250 226.211,95.048 225.469 L 96.500 224.121 96.241 221.382 C 96.095 219.841,95.646 217.985,95.212 217.137 C 94.789 216.309,94.304 214.412,94.135 212.921 C 93.965 211.431,93.561 209.698,93.236 209.070 C 92.884 208.389,92.414 205.604,92.074 202.175 C 91.759 199.011,91.345 195.659,91.153 194.727 C 90.703 192.536,90.703 184.112,91.153 181.921 C 91.345 180.989,91.759 177.637,92.074 174.473 C 92.414 171.044,92.884 168.259,93.236 167.578 C 93.561 166.950,93.964 165.217,94.131 163.726 C 94.301 162.213,94.790 160.355,95.240 159.516 C 95.683 158.690,96.045 157.515,96.045 156.904 C 96.045 156.293,96.381 155.100,96.791 154.253 C 97.201 153.406,97.782 151.954,98.082 151.027 C 99.848 145.568,103.029 138.521,106.492 132.392 C 108.334 129.132,109.080 127.988,110.676 125.979 C 110.845 125.766,111.299 125.088,111.685 124.472 C 112.071 123.856,113.089 122.505,113.946 121.469 C 114.804 120.433,115.661 119.310,115.851 118.973 C 117.228 116.527,127.381 105.908,130.885 103.249 C 131.714 102.620,132.815 101.754,133.333 101.325 C 134.376 100.462,136.266 98.982,139.594 96.422 C 141.719 94.787,145.635 92.279,146.061 92.279 C 146.175 92.279,146.536 92.040,146.863 91.749 C 147.619 91.075,155.837 86.948,158.569 85.870 C 164.048 83.708,165.706 83.124,167.797 82.616 C 169.040 82.314,170.552 81.814,171.157 81.504 C 171.763 81.193,173.542 80.698,175.112 80.403 C 176.682 80.108,178.893 79.609,180.026 79.293 C 181.158 78.978,182.853 78.716,183.792 78.712 C 184.731 78.708,187.787 78.373,190.584 77.966 C 196.634 77.087,202.884 77.021,208.228 77.780 C 210.371 78.085,213.927 78.505,216.131 78.714 C 218.334 78.923,220.903 79.343,221.839 79.647 C 222.775 79.952,224.586 80.364,225.863 80.564 C 227.140 80.764,228.666 81.171,229.253 81.468 C 229.840 81.765,230.984 82.129,231.795 82.276 C 232.607 82.423,234.302 82.946,235.562 83.439 C 236.822 83.931,239.040 84.783,240.490 85.333 C 248.443 88.348,257.307 93.874,265.952 101.206 C 268.011 102.953,269.521 103.955,270.095 103.955 C 270.879 103.956,302.972 72.187,318.870 55.674 C 322.427 51.979,322.422 51.929,318.173 48.472 C 316.257 46.914,312.825 44.101,310.546 42.221 C 305.701 38.226,305.224 37.850,303.899 36.993 C 303.350 36.637,301.909 35.681,300.697 34.868 C 294.516 30.720,287.414 26.408,285.122 25.413 C 284.397 25.098,283.550 24.673,283.239 24.468 C 282.928 24.263,281.996 23.754,281.168 23.336 C 280.339 22.919,278.407 21.904,276.874 21.081 C 275.340 20.259,273.883 19.586,273.634 19.586 C 273.385 19.586,272.385 19.162,271.411 18.644 C 270.437 18.126,269.440 17.702,269.195 17.702 C 268.950 17.702,267.899 17.305,266.860 16.820 C 263.990 15.479,253.958 12.174,249.529 11.110 C 248.286 10.812,245.998 10.244,244.444 9.848 C 240.590 8.866,234.635 7.649,231.450 7.192 C 230.000 6.984,227.373 6.556,225.612 6.242 C 220.129 5.262,192.774 3.957,192.090 4.642 " stroke="none" fill="#27f041" fill-rule="evenodd"></path><path id="path2" d="M0.000 188.324 L 0.000 376.648 200.000 376.648 L 400.000 376.648 400.000 188.324 L 400.000 0.000 200.000 0.000 L 0.000 0.000 0.000 188.324 M218.429 5.020 C 226.459 5.758,227.921 5.950,230.320 6.580 C 231.356 6.852,233.220 7.172,234.463 7.291 C 236.760 7.511,243.997 9.033,247.081 9.945 C 248.013 10.221,250.217 10.832,251.977 11.304 C 253.738 11.776,256.789 12.714,258.757 13.389 C 260.725 14.064,262.928 14.818,263.653 15.066 C 264.379 15.313,265.777 15.923,266.761 16.421 C 267.745 16.918,268.779 17.326,269.059 17.326 C 269.339 17.326,270.365 17.750,271.339 18.267 C 272.313 18.785,273.294 19.209,273.518 19.209 C 274.035 19.209,278.908 21.624,283.804 24.306 C 285.876 25.440,288.249 26.712,289.077 27.130 C 291.058 28.131,297.297 31.998,300.942 34.483 C 301.667 34.977,302.828 35.768,303.522 36.241 C 304.216 36.713,305.066 37.354,305.411 37.665 C 305.757 37.976,306.513 38.538,307.094 38.914 C 307.674 39.290,308.434 39.853,308.782 40.165 C 309.131 40.476,311.704 42.605,314.501 44.895 C 321.894 50.948,322.129 51.193,321.864 52.533 C 321.696 53.384,315.746 59.557,297.180 78.145 C 283.726 91.615,272.500 102.937,272.234 103.304 C 271.080 104.894,269.196 104.581,266.766 102.396 C 260.515 96.774,254.837 92.900,247.310 89.122 C 240.315 85.611,238.672 84.867,237.100 84.504 C 236.478 84.361,235.122 83.850,234.087 83.368 C 233.051 82.887,231.813 82.492,231.335 82.490 C 230.858 82.488,229.756 82.163,228.887 81.768 C 228.018 81.373,226.460 80.935,225.424 80.794 C 224.388 80.653,222.353 80.216,220.903 79.823 C 218.615 79.204,212.178 78.488,201.865 77.707 C 200.302 77.589,197.335 77.686,195.274 77.923 C 193.212 78.161,189.326 78.521,186.637 78.723 C 183.870 78.932,180.765 79.406,179.481 79.815 C 178.233 80.213,176.298 80.647,175.181 80.779 C 174.063 80.911,172.538 81.329,171.791 81.708 C 171.044 82.086,169.670 82.521,168.738 82.674 C 167.806 82.827,166.560 83.199,165.969 83.502 C 165.378 83.804,164.192 84.279,163.332 84.556 C 159.211 85.887,149.602 90.428,146.139 92.680 C 145.207 93.287,143.936 94.044,143.315 94.364 C 142.693 94.684,141.565 95.404,140.808 95.966 C 140.052 96.527,138.380 97.750,137.094 98.682 C 135.808 99.614,134.224 100.888,133.574 101.514 C 132.924 102.139,131.718 103.156,130.894 103.774 C 128.365 105.670,123.204 110.756,120.384 114.132 C 118.909 115.897,117.395 117.676,117.020 118.086 C 116.280 118.895,112.289 124.145,111.676 125.116 C 111.469 125.444,110.690 126.622,109.946 127.734 C 109.201 128.846,108.227 130.348,107.780 131.073 C 106.295 133.481,100.600 145.162,99.791 147.458 C 99.353 148.701,98.728 150.480,98.401 151.412 C 98.074 152.345,97.493 153.559,97.111 154.111 C 96.729 154.663,96.309 155.934,96.177 156.936 C 96.046 157.938,95.618 159.396,95.227 160.176 C 94.836 160.957,94.366 162.737,94.183 164.131 C 94.000 165.526,93.571 167.429,93.229 168.362 C 92.886 169.294,92.453 172.042,92.265 174.470 C 92.076 176.897,91.750 179.948,91.538 181.249 C 91.044 184.297,91.044 192.351,91.538 195.398 C 91.750 196.700,92.076 199.751,92.265 202.178 C 92.453 204.605,92.886 207.354,93.229 208.286 C 93.571 209.218,94.000 211.122,94.183 212.517 C 94.366 213.911,94.837 215.691,95.228 216.471 C 95.620 217.252,96.036 218.637,96.153 219.549 C 96.270 220.462,96.709 221.673,97.129 222.241 C 97.549 222.809,98.253 224.266,98.693 225.479 C 100.417 230.234,100.775 231.107,101.370 232.015 C 101.710 232.533,102.185 233.579,102.425 234.339 C 102.666 235.099,103.109 235.925,103.409 236.174 C 103.709 236.423,103.955 236.903,103.956 237.240 C 103.957 237.577,104.324 238.446,104.773 239.171 C 105.221 239.896,106.291 241.846,107.151 243.503 C 109.547 248.121,109.946 248.746,114.193 254.526 C 118.094 259.836,129.583 272.316,130.569 272.316 C 130.864 272.316,131.852 273.197,133.634 275.047 C 134.182 275.617,134.761 276.083,134.920 276.083 C 135.078 276.083,136.241 276.888,137.504 277.872 C 138.767 278.856,140.164 279.866,140.609 280.116 C 141.054 280.366,141.591 280.790,141.801 281.058 C 142.012 281.325,142.778 281.848,143.503 282.219 C 144.228 282.590,145.669 283.385,146.704 283.986 C 149.009 285.323,158.433 290.019,158.811 290.019 C 158.961 290.019,159.773 290.347,160.616 290.747 C 162.608 291.695,166.047 292.920,169.115 293.775 C 170.461 294.150,172.072 294.711,172.693 295.021 C 173.315 295.332,174.882 295.697,176.175 295.834 C 177.469 295.971,179.164 296.355,179.942 296.688 C 184.636 298.700,215.282 298.767,221.657 296.779 C 222.900 296.392,225.104 295.961,226.554 295.823 C 228.050 295.680,230.020 295.185,231.110 294.678 C 232.166 294.187,233.524 293.785,234.129 293.785 C 234.733 293.785,235.821 293.467,236.546 293.079 C 237.271 292.690,238.838 292.155,240.029 291.888 C 241.219 291.622,242.382 291.177,242.612 290.900 C 242.842 290.622,243.200 290.395,243.407 290.395 C 244.216 290.395,254.491 285.627,254.816 285.100 C 254.907 284.953,255.703 284.461,256.587 284.006 C 257.470 283.551,259.040 282.686,260.075 282.082 C 261.111 281.479,262.509 280.728,263.183 280.412 C 263.856 280.097,264.407 279.700,264.407 279.529 C 264.407 279.359,265.266 278.556,266.316 277.745 C 271.604 273.663,278.985 266.712,280.008 264.850 C 280.307 264.307,282.460 261.595,285.118 258.415 C 285.535 257.916,285.876 257.293,285.876 257.031 C 285.876 256.769,286.274 256.076,286.760 255.490 C 287.648 254.421,287.889 254.017,289.665 250.621 C 290.196 249.606,290.820 248.437,291.053 248.023 C 291.701 246.871,293.707 242.115,293.992 241.055 C 294.132 240.537,294.473 239.605,294.750 238.983 C 296.139 235.868,297.923 228.272,297.489 227.319 L 297.054 226.365 248.925 226.365 L 200.796 226.365 200.210 225.528 C 199.689 224.785,199.623 220.824,199.623 190.370 L 199.623 156.049 200.416 155.331 C 201.221 154.603,362.879 153.930,369.786 154.626 C 372.587 154.909,373.019 155.374,373.622 158.757 C 376.613 175.560,377.030 203.326,374.547 220.339 C 372.852 231.954,372.491 234.169,371.800 237.174 C 369.066 249.069,368.137 252.734,367.456 254.319 C 367.126 255.090,366.855 256.023,366.855 256.394 C 366.855 256.765,366.431 257.864,365.913 258.837 C 365.395 259.810,364.971 260.995,364.970 261.471 C 364.970 261.946,364.626 262.897,364.208 263.583 C 363.789 264.270,363.265 265.680,363.043 266.717 C 362.820 267.754,362.411 268.689,362.133 268.796 C 361.855 268.902,361.522 269.526,361.393 270.182 C 361.062 271.862,360.415 273.446,360.060 273.446 C 359.894 273.446,359.645 273.997,359.506 274.670 C 359.367 275.344,358.845 276.526,358.346 277.299 C 357.847 278.071,357.439 278.838,357.439 279.003 C 357.439 279.731,351.395 291.046,349.142 294.539 C 348.540 295.471,347.703 296.827,347.280 297.552 C 345.988 299.771,342.978 304.075,340.865 306.727 C 340.346 307.377,339.345 308.672,338.640 309.605 C 337.935 310.537,337.049 311.638,336.671 312.053 C 336.292 312.467,335.121 313.872,334.068 315.174 C 332.025 317.700,318.474 331.380,316.452 332.957 C 315.788 333.475,314.754 334.322,314.152 334.840 C 311.128 337.446,307.895 339.914,305.519 341.431 C 305.195 341.638,303.955 342.599,302.765 343.566 C 301.574 344.533,300.211 345.443,299.735 345.588 C 299.259 345.733,298.616 346.067,298.305 346.331 C 297.994 346.594,296.215 347.607,294.350 348.581 C 292.486 349.556,290.693 350.591,290.366 350.883 C 290.039 351.174,289.631 351.412,289.460 351.412 C 289.288 351.412,288.624 351.810,287.983 352.297 C 287.342 352.783,286.195 353.385,285.435 353.634 C 284.675 353.884,283.849 354.333,283.600 354.633 C 283.351 354.933,282.937 355.179,282.681 355.179 C 282.425 355.179,281.302 355.665,280.185 356.260 C 279.068 356.855,277.561 357.470,276.836 357.627 C 276.111 357.785,275.129 358.219,274.653 358.592 C 274.177 358.965,273.259 359.386,272.613 359.528 C 271.966 359.670,270.915 360.105,270.276 360.494 C 269.637 360.884,268.756 361.203,268.318 361.204 C 267.880 361.205,267.093 361.542,266.570 361.954 C 266.047 362.365,264.710 362.891,263.600 363.121 C 262.490 363.352,261.243 363.752,260.829 364.010 C 260.414 364.269,258.889 364.697,257.439 364.963 C 255.989 365.228,254.294 365.651,253.672 365.903 C 253.051 366.155,251.186 366.654,249.529 367.011 C 247.872 367.369,245.838 367.886,245.009 368.161 C 243.368 368.705,239.896 369.321,236.347 369.697 C 235.104 369.829,233.154 370.189,232.015 370.498 C 230.876 370.807,227.147 371.297,223.729 371.587 C 220.311 371.878,216.328 372.279,214.878 372.479 C 211.417 372.956,190.388 372.949,187.006 372.469 C 185.556 372.263,181.657 371.859,178.343 371.571 C 170.845 370.919,167.316 370.449,166.102 369.941 C 165.584 369.725,163.465 369.259,161.394 368.907 C 159.322 368.554,156.916 368.038,156.047 367.760 C 155.179 367.482,153.452 367.091,152.212 366.892 C 150.971 366.692,149.563 366.279,149.083 365.974 C 148.603 365.670,147.448 365.299,146.516 365.151 C 145.584 365.003,144.220 364.577,143.485 364.205 C 142.751 363.833,141.479 363.408,140.660 363.262 C 139.841 363.116,138.578 362.685,137.853 362.304 C 137.128 361.923,135.834 361.434,134.978 361.217 C 134.122 361.000,133.222 360.583,132.979 360.290 C 132.736 359.997,131.860 359.643,131.033 359.503 C 130.205 359.364,129.240 358.942,128.889 358.566 C 128.537 358.190,127.612 357.763,126.833 357.618 C 126.054 357.473,125.024 357.044,124.543 356.666 C 124.063 356.288,123.174 355.859,122.569 355.713 C 121.964 355.567,120.367 354.847,119.021 354.114 C 117.674 353.381,114.878 351.918,112.806 350.865 C 110.734 349.811,108.531 348.626,107.910 348.231 C 106.578 347.386,104.422 346.058,101.559 344.320 C 100.422 343.630,99.408 342.847,99.306 342.579 C 99.203 342.312,98.649 341.975,98.074 341.831 C 97.164 341.602,95.900 340.720,93.785 338.837 C 93.475 338.560,92.797 338.114,92.279 337.844 C 90.998 337.178,88.437 335.176,87.833 334.369 C 87.562 334.007,87.132 333.710,86.878 333.710 C 86.624 333.710,85.659 332.973,84.734 332.072 C 83.808 331.172,82.775 330.282,82.438 330.095 C 80.642 329.099,69.070 317.876,62.865 311.111 C 58.959 306.853,57.856 305.517,56.685 303.622 C 56.478 303.287,55.926 302.589,55.458 302.072 C 52.594 298.902,51.245 297.209,50.658 296.045 C 50.292 295.320,49.761 294.591,49.478 294.426 C 49.195 294.260,48.964 293.937,48.964 293.708 C 48.964 293.479,48.499 292.682,47.930 291.938 C 46.866 290.545,46.119 289.311,44.935 286.994 C 44.562 286.262,44.031 285.415,43.757 285.111 C 43.102 284.384,41.604 281.883,40.834 280.226 C 40.496 279.501,39.997 278.779,39.724 278.622 C 39.451 278.465,39.023 277.703,38.773 276.927 C 38.523 276.152,38.015 275.227,37.645 274.872 C 37.274 274.517,36.760 273.246,36.501 272.047 C 36.242 270.849,35.209 268.126,34.206 265.998 C 32.555 262.496,30.588 257.705,29.144 253.672 C 28.848 252.844,28.440 251.827,28.239 251.412 C 28.037 250.998,27.549 249.727,27.154 248.588 C 26.759 247.448,26.173 245.838,25.852 245.009 C 25.531 244.181,25.261 243.142,25.252 242.700 C 25.243 242.259,24.812 240.772,24.294 239.396 C 23.776 238.020,23.352 236.469,23.352 235.950 C 23.352 235.431,22.951 234.036,22.461 232.851 C 21.971 231.666,21.464 229.633,21.336 228.333 C 21.207 227.033,20.826 225.436,20.488 224.783 C 20.139 224.107,19.736 221.964,19.552 219.802 C 19.375 217.715,18.957 215.075,18.622 213.936 C 16.588 207.003,16.519 171.899,18.524 163.465 C 18.942 161.704,19.416 158.643,19.578 156.661 C 19.744 154.618,20.137 152.544,20.486 151.868 C 20.825 151.214,21.207 149.614,21.336 148.315 C 21.464 147.015,21.971 144.982,22.461 143.797 C 22.951 142.612,23.352 141.217,23.352 140.698 C 23.352 140.179,23.776 138.628,24.294 137.252 C 24.812 135.876,25.243 134.389,25.252 133.948 C 25.261 133.506,25.531 132.467,25.852 131.638 C 26.173 130.810,26.759 129.200,27.154 128.060 C 27.549 126.921,28.037 125.650,28.239 125.235 C 28.440 124.821,28.848 123.804,29.144 122.976 C 30.580 118.964,32.595 114.021,33.902 111.299 C 34.698 109.642,35.877 106.936,36.521 105.287 C 37.165 103.637,37.832 102.196,38.002 102.085 C 38.172 101.974,38.679 101.121,39.130 100.188 C 39.580 99.256,40.361 97.815,40.865 96.987 C 41.369 96.158,42.216 94.718,42.747 93.785 C 47.053 86.235,54.134 76.232,59.510 70.104 C 70.976 57.038,81.887 46.681,91.106 40.113 C 92.581 39.062,93.272 38.547,96.332 36.220 C 96.968 35.737,97.997 35.059,98.618 34.714 C 99.240 34.369,100.737 33.423,101.946 32.613 C 103.154 31.802,105.374 30.447,106.879 29.600 C 108.383 28.753,110.417 27.604,111.399 27.045 C 115.024 24.983,126.788 19.209,127.364 19.209 C 127.691 19.209,128.369 18.886,128.870 18.492 C 129.372 18.098,130.538 17.573,131.463 17.327 C 132.388 17.081,133.399 16.659,133.710 16.391 C 134.021 16.123,134.868 15.779,135.593 15.627 C 136.318 15.476,137.404 15.100,138.006 14.792 C 138.609 14.484,140.219 13.898,141.585 13.489 C 148.304 11.479,153.407 10.066,156.309 9.413 C 158.070 9.017,160.104 8.513,160.829 8.294 C 161.554 8.074,163.888 7.647,166.017 7.345 C 168.145 7.043,170.857 6.546,172.043 6.242 C 173.229 5.937,176.827 5.496,180.038 5.261 C 183.249 5.026,186.808 4.696,187.947 4.527 C 191.269 4.035,211.217 4.358,218.429 5.020 " stroke="none" fill="#fbfbfb" fill-rule="evenodd"></path><path id="path3" d="M186.889 4.593 C 181.699 5.229,183.773 5.430,190.112 4.905 C 195.690 4.444,198.557 4.461,214.313 5.053 C 218.031 5.193,218.110 5.182,215.631 4.859 C 211.682 4.344,190.515 4.148,186.889 4.593 M178.824 5.549 C 179.709 5.629,181.065 5.628,181.837 5.547 C 182.608 5.466,181.883 5.401,180.226 5.402 C 178.569 5.404,177.938 5.470,178.824 5.549 M221.734 5.675 C 223.434 5.839,226.517 6.325,228.586 6.753 C 230.655 7.182,232.824 7.530,233.406 7.527 C 234.462 7.521,239.115 8.501,244.444 9.851 C 245.998 10.245,248.286 10.812,249.529 11.110 C 251.598 11.607,258.469 13.718,263.089 15.275 C 264.124 15.624,265.622 16.242,266.417 16.648 C 267.212 17.054,267.935 17.313,268.024 17.224 C 268.213 17.035,265.570 15.733,263.653 15.071 C 256.985 12.768,254.745 12.045,251.977 11.304 C 250.217 10.832,248.013 10.221,247.081 9.945 C 243.952 9.020,236.744 7.509,234.463 7.300 C 233.220 7.186,231.695 6.930,231.073 6.730 C 229.332 6.170,222.632 5.282,220.527 5.331 C 219.063 5.366,219.331 5.442,221.734 5.675 M171.940 6.240 C 170.904 6.528,168.277 7.018,166.102 7.328 C 163.927 7.639,161.554 8.073,160.829 8.293 C 160.104 8.513,158.070 9.017,156.309 9.413 C 153.407 10.066,148.304 11.479,141.585 13.489 C 140.219 13.898,138.609 14.484,138.006 14.792 C 137.404 15.100,136.318 15.476,135.593 15.627 C 134.868 15.779,134.021 16.123,133.710 16.391 C 133.399 16.659,132.388 17.081,131.463 17.327 C 130.538 17.573,129.372 18.098,128.870 18.492 C 127.681 19.427,128.091 19.409,129.652 18.457 C 130.330 18.044,131.139 17.704,131.450 17.702 C 131.761 17.699,132.524 17.428,133.145 17.098 C 137.693 14.683,158.066 9.022,167.420 7.575 C 169.906 7.190,172.238 6.750,172.602 6.598 C 172.966 6.445,174.153 6.190,175.239 6.032 L 177.213 5.744 175.518 5.730 C 174.586 5.723,172.976 5.952,171.940 6.240 M270.998 18.456 C 271.620 18.867,272.298 19.204,272.505 19.204 C 272.712 19.204,272.373 18.867,271.751 18.456 C 271.130 18.044,270.452 17.707,270.245 17.707 C 270.038 17.707,270.377 18.044,270.998 18.456 M119.209 22.974 C 115.687 24.797,112.128 26.647,111.299 27.086 C 108.884 28.366,103.861 31.339,101.700 32.768 C 100.604 33.493,99.053 34.461,98.253 34.919 C 97.454 35.377,96.418 36.122,95.952 36.575 C 95.092 37.410,95.469 37.279,97.175 36.147 C 97.693 35.804,98.879 35.045,99.812 34.461 C 100.744 33.878,102.185 32.940,103.013 32.377 C 103.842 31.814,105.706 30.727,107.156 29.962 C 108.606 29.196,110.725 27.992,111.864 27.286 C 113.004 26.580,114.529 25.741,115.254 25.422 C 115.979 25.102,116.827 24.678,117.137 24.479 C 117.448 24.280,119.397 23.273,121.469 22.241 C 125.407 20.278,126.621 19.576,125.989 19.628 C 125.782 19.645,122.731 21.150,119.209 22.974 M275.216 20.151 C 275.661 20.463,276.758 21.065,277.654 21.489 C 278.551 21.914,280.132 22.751,281.168 23.349 C 283.497 24.694,284.807 25.300,284.991 25.116 C 285.068 25.039,284.034 24.399,282.694 23.693 C 281.354 22.988,279.106 21.790,277.699 21.031 C 275.054 19.605,273.804 19.162,275.216 20.151 M286.296 25.910 C 286.790 26.281,288.635 27.404,290.395 28.405 C 293.570 30.211,296.452 32.019,300.697 34.868 C 301.909 35.681,303.350 36.637,303.899 36.993 C 305.224 37.850,305.701 38.226,310.546 42.221 C 312.825 44.101,316.257 46.914,318.173 48.472 C 322.422 51.929,322.427 51.979,318.870 55.674 C 302.972 72.187,270.879 103.956,270.095 103.955 C 269.521 103.955,268.011 102.953,265.952 101.206 C 257.307 93.874,248.443 88.348,240.490 85.333 C 239.040 84.783,236.790 83.918,235.492 83.410 C 234.193 82.902,232.922 82.488,232.667 82.490 C 232.009 82.495,235.740 84.191,237.100 84.504 C 238.672 84.867,240.315 85.611,247.310 89.122 C 254.837 92.900,260.515 96.774,266.766 102.396 C 269.196 104.581,271.080 104.894,272.234 103.304 C 272.500 102.937,283.726 91.615,297.180 78.145 C 315.746 59.557,321.696 53.384,321.864 52.533 C 322.129 51.193,321.894 50.948,314.501 44.895 C 311.704 42.605,309.131 40.476,308.782 40.165 C 308.434 39.853,307.674 39.290,307.094 38.914 C 306.513 38.538,305.757 37.976,305.411 37.665 C 305.066 37.354,304.216 36.713,303.522 36.241 C 302.828 35.768,301.667 34.977,300.942 34.483 C 297.081 31.851,290.906 28.037,289.266 27.271 C 288.540 26.933,287.497 26.336,286.948 25.946 C 285.674 25.041,285.097 25.010,286.296 25.910 M93.724 38.147 C 93.172 38.607,92.000 39.492,91.120 40.113 C 82.095 46.486,70.986 57.026,59.510 70.104 C 54.574 75.730,49.433 82.861,44.633 90.740 C 43.597 92.440,42.360 94.434,41.883 95.170 C 41.407 95.907,41.072 96.565,41.139 96.631 C 41.205 96.698,41.604 96.212,42.025 95.551 C 54.146 76.518,59.866 69.207,72.288 56.874 C 77.137 52.059,79.759 49.786,90.395 41.172 C 94.268 38.036,95.117 37.311,94.915 37.311 C 94.812 37.312,94.275 37.688,93.724 38.147 M190.584 77.966 C 184.958 78.833,186.231 78.882,193.773 78.089 C 198.872 77.552,200.475 77.524,204.319 77.903 C 210.089 78.471,212.074 78.390,207.910 77.757 C 203.450 77.078,195.740 77.171,190.584 77.966 M211.963 78.609 C 212.431 78.699,213.109 78.696,213.470 78.602 C 213.830 78.507,213.446 78.434,212.618 78.438 C 211.789 78.442,211.494 78.519,211.963 78.609 M182.015 78.979 C 182.378 79.074,182.971 79.074,183.333 78.979 C 183.696 78.884,183.399 78.807,182.674 78.807 C 181.949 78.807,181.653 78.884,182.015 78.979 M216.667 78.979 C 217.029 79.074,217.622 79.074,217.985 78.979 C 218.347 78.884,218.051 78.807,217.326 78.807 C 216.601 78.807,216.304 78.884,216.667 78.979 M179.609 79.273 C 179.512 79.371,178.509 79.698,177.381 80.002 C 175.878 80.406,175.631 80.552,176.460 80.549 C 177.778 80.544,181.749 79.169,180.571 79.125 C 180.140 79.109,179.707 79.176,179.609 79.273 M221.092 79.844 C 222.439 80.260,223.879 80.589,224.294 80.576 C 225.186 80.547,221.857 79.550,219.962 79.277 C 219.237 79.173,219.746 79.428,221.092 79.844 M171.563 81.331 C 170.734 81.726,169.040 82.300,167.797 82.607 C 165.705 83.123,164.027 83.717,158.569 85.870 C 155.837 86.948,147.619 91.075,146.863 91.749 C 146.536 92.040,146.172 92.279,146.053 92.279 C 145.287 92.279,135.982 98.878,135.384 99.846 C 135.250 100.063,136.213 99.423,137.525 98.425 C 141.265 95.578,142.105 94.989,143.315 94.366 C 143.936 94.045,145.207 93.287,146.139 92.680 C 149.602 90.428,159.211 85.887,163.332 84.556 C 164.192 84.279,165.378 83.804,165.969 83.502 C 166.560 83.199,167.806 82.827,168.738 82.674 C 169.670 82.522,170.942 82.134,171.563 81.813 C 172.185 81.492,173.202 81.106,173.823 80.955 C 174.855 80.704,174.871 80.677,174.011 80.646 C 173.493 80.628,172.392 80.936,171.563 81.331 M226.745 80.992 C 227.472 81.165,228.574 81.571,229.194 81.894 C 229.813 82.217,230.744 82.465,231.262 82.445 C 232.131 82.412,232.117 82.386,231.073 82.116 C 230.452 81.954,229.313 81.548,228.543 81.212 C 227.773 80.877,226.756 80.620,226.283 80.640 C 225.686 80.667,225.827 80.774,226.745 80.992 M40.031 98.422 C 39.581 99.083,39.096 99.962,38.952 100.377 C 38.809 100.791,39.245 100.317,39.920 99.324 C 40.595 98.331,41.080 97.452,40.998 97.370 C 40.916 97.288,40.481 97.762,40.031 98.422 M133.145 101.356 C 132.731 101.787,131.714 102.646,130.885 103.266 C 127.473 105.817,117.285 116.456,115.845 118.973 C 115.652 119.310,114.677 120.569,113.679 121.771 C 112.681 122.973,111.864 124.042,111.864 124.147 C 111.864 124.606,112.622 123.777,114.347 121.435 C 115.364 120.054,116.543 118.564,116.968 118.125 C 117.393 117.685,118.940 115.885,120.407 114.124 C 123.409 110.520,128.344 105.702,131.522 103.275 C 132.690 102.383,133.739 101.408,133.854 101.109 C 134.129 100.393,134.042 100.424,133.145 101.356 M38.187 101.851 C 37.681 102.400,36.911 103.801,36.911 104.171 C 36.911 104.317,37.344 103.800,37.872 103.022 C 38.822 101.621,38.997 100.969,38.187 101.851 M36.252 105.932 C 35.847 107.039,35.857 107.086,36.358 106.425 C 36.837 105.793,37.120 104.708,36.806 104.708 C 36.748 104.708,36.498 105.259,36.252 105.932 M32.648 113.953 C 31.763 115.809,31.887 116.125,32.812 114.371 C 33.232 113.575,33.509 112.857,33.428 112.775 C 33.347 112.694,32.995 113.224,32.648 113.953 M29.634 121.486 C 29.286 122.216,29.006 123.019,29.010 123.271 C 29.015 123.523,29.357 122.983,29.770 122.072 C 30.666 120.098,30.545 119.577,29.634 121.486 M110.886 125.654 C 110.492 126.201,109.821 127.093,109.395 127.637 C 106.421 131.430,100.172 144.403,98.033 151.224 C 97.708 152.260,97.200 153.531,96.903 154.049 L 96.364 154.991 97.052 154.082 C 97.714 153.208,98.050 152.396,99.791 147.458 C 100.593 145.181,106.275 133.521,107.774 131.073 C 109.515 128.232,110.539 126.707,111.251 125.896 C 111.659 125.431,111.905 124.962,111.797 124.855 C 111.690 124.747,111.280 125.107,110.886 125.654 M26.245 130.526 C 25.360 132.381,25.484 132.697,26.409 130.944 C 26.829 130.147,27.106 129.429,27.025 129.348 C 26.944 129.266,26.592 129.797,26.245 130.526 M201.883 154.700 C 199.456 155.141,199.623 152.492,199.623 190.370 C 199.623 220.824,199.689 224.785,200.210 225.528 L 200.796 226.365 248.925 226.365 L 297.054 226.365 297.489 227.319 C 297.923 228.272,296.139 235.868,294.750 238.983 C 294.473 239.605,294.132 240.537,293.992 241.055 C 293.707 242.115,291.701 246.871,291.053 248.023 C 290.820 248.437,290.196 249.606,289.665 250.621 C 287.889 254.017,287.648 254.421,286.760 255.490 C 286.274 256.076,285.876 256.769,285.876 257.031 C 285.876 257.293,285.535 257.916,285.118 258.415 C 282.460 261.595,280.307 264.307,280.008 264.850 C 278.985 266.712,271.604 273.663,266.316 277.745 C 265.266 278.556,264.407 279.359,264.407 279.529 C 264.407 279.700,263.856 280.097,263.183 280.412 C 262.509 280.728,261.111 281.479,260.075 282.082 C 259.040 282.686,257.470 283.551,256.587 284.006 C 255.703 284.461,254.907 284.953,254.816 285.100 C 254.491 285.627,244.216 290.395,243.407 290.395 C 243.200 290.395,242.842 290.622,242.612 290.900 C 242.382 291.177,241.219 291.622,240.029 291.888 C 238.838 292.155,237.271 292.690,236.546 293.079 C 235.821 293.467,234.733 293.785,234.129 293.785 C 233.524 293.785,232.166 294.187,231.110 294.678 C 230.020 295.185,228.050 295.680,226.554 295.823 C 225.104 295.961,222.900 296.392,221.657 296.779 C 215.282 298.767,184.636 298.700,179.942 296.688 C 179.164 296.355,177.469 295.971,176.175 295.834 C 174.882 295.697,173.315 295.332,172.693 295.021 C 172.072 294.711,170.461 294.150,169.115 293.775 C 166.047 292.920,162.608 291.695,160.616 290.747 C 159.773 290.347,158.961 290.019,158.811 290.019 C 158.433 290.019,149.009 285.323,146.704 283.986 C 145.669 283.385,144.228 282.590,143.503 282.219 C 142.778 281.848,142.012 281.325,141.801 281.058 C 141.591 280.790,141.054 280.366,140.609 280.116 C 140.164 279.866,138.767 278.856,137.504 277.872 C 136.241 276.888,135.078 276.083,134.920 276.083 C 134.761 276.083,134.182 275.617,133.634 275.047 C 131.852 273.197,130.864 272.316,130.569 272.316 C 129.583 272.316,118.094 259.836,114.193 254.526 C 109.946 248.746,109.547 248.121,107.151 243.503 C 106.291 241.846,105.221 239.896,104.773 239.171 C 104.324 238.446,103.957 237.577,103.956 237.240 C 103.955 236.903,103.709 236.423,103.409 236.174 C 103.109 235.925,102.666 235.099,102.425 234.339 C 102.185 233.579,101.710 232.533,101.370 232.015 C 100.771 231.100,100.375 230.131,98.678 225.424 C 98.230 224.181,97.632 222.906,97.351 222.591 C 97.069 222.276,96.669 221.598,96.463 221.085 C 96.162 220.337,96.130 220.497,96.298 221.883 C 96.423 222.912,96.327 223.956,96.060 224.454 C 95.648 225.225,95.672 225.260,96.358 224.893 C 97.143 224.473,97.928 225.814,97.928 227.571 C 97.928 227.965,98.257 228.914,98.658 229.681 C 99.060 230.447,99.843 232.090,100.399 233.333 C 103.780 240.894,108.231 248.773,110.734 251.628 C 111.045 251.983,111.808 252.994,112.429 253.875 C 113.535 255.442,115.520 258.009,116.495 259.134 C 116.765 259.444,117.251 260.122,117.577 260.640 C 118.067 261.422,123.184 267.324,124.185 268.264 C 126.501 270.437,130.010 273.446,130.228 273.446 C 130.382 273.446,131.225 274.101,132.100 274.901 C 132.975 275.700,134.018 276.590,134.417 276.878 C 134.817 277.166,136.559 278.504,138.288 279.852 C 144.474 284.674,156.853 291.516,161.394 292.622 C 162.429 292.875,163.669 293.336,164.149 293.646 C 164.629 293.957,166.067 294.380,167.346 294.586 C 168.624 294.792,169.937 295.202,170.263 295.497 C 170.589 295.792,172.194 296.219,173.830 296.447 C 175.466 296.674,177.294 297.113,177.891 297.422 C 178.488 297.731,180.868 298.139,183.180 298.330 C 185.491 298.520,188.484 298.925,189.831 299.230 C 193.315 300.020,208.706 300.024,211.864 299.236 C 213.107 298.926,216.294 298.505,218.946 298.300 C 221.864 298.074,224.211 297.698,224.889 297.348 C 225.506 297.029,227.149 296.669,228.542 296.547 C 230.031 296.417,231.576 296.024,232.293 295.593 C 232.963 295.190,234.649 294.699,236.039 294.502 C 237.430 294.305,238.830 293.915,239.152 293.636 C 239.473 293.356,240.405 293.007,241.222 292.861 C 242.039 292.714,243.310 292.275,244.047 291.885 C 244.783 291.496,246.911 290.498,248.776 289.668 C 250.640 288.837,253.324 287.518,254.740 286.735 C 256.156 285.951,257.766 285.077,258.318 284.792 C 258.870 284.507,259.746 283.912,260.264 283.470 C 260.782 283.028,262.018 282.244,263.012 281.729 C 264.005 281.213,265.069 280.410,265.374 279.944 C 265.680 279.477,266.155 279.096,266.429 279.096 C 266.703 279.096,267.249 278.735,267.644 278.294 C 268.039 277.853,268.988 277.094,269.753 276.608 C 270.518 276.121,271.741 275.126,272.471 274.397 C 273.201 273.667,273.921 273.070,274.072 273.070 C 274.448 273.070,279.096 268.183,279.096 267.788 C 279.096 267.613,279.409 267.371,279.792 267.250 C 280.175 267.128,280.683 266.651,280.922 266.189 C 281.160 265.726,281.951 264.586,282.679 263.653 C 283.407 262.721,284.243 261.450,284.536 260.829 C 284.829 260.207,285.420 259.404,285.849 259.043 C 286.278 258.683,286.629 258.131,286.629 257.817 C 286.629 257.503,287.039 256.889,287.540 256.453 C 288.041 256.017,288.562 255.221,288.697 254.683 C 288.832 254.146,289.269 253.477,289.669 253.197 C 290.068 252.917,290.395 252.502,290.395 252.274 C 290.395 252.046,290.819 251.305,291.337 250.626 C 291.855 249.947,292.279 249.183,292.279 248.928 C 292.279 248.674,292.680 247.773,293.170 246.926 C 293.659 246.079,294.256 244.779,294.496 244.037 C 294.736 243.295,295.267 242.030,295.677 241.227 C 296.087 240.423,296.422 239.443,296.422 239.049 C 296.422 238.655,296.747 237.716,297.145 236.963 C 297.951 235.435,299.442 229.102,299.438 227.222 C 299.432 224.718,302.399 224.859,249.727 224.859 L 202.241 224.859 201.874 223.893 C 201.175 222.056,201.395 156.851,202.102 156.144 C 202.742 155.504,370.953 155.385,371.593 156.025 C 371.747 156.179,372.089 158.605,372.352 161.416 C 372.615 164.227,373.014 166.749,373.238 167.019 C 374.759 168.851,374.767 216.449,373.248 218.280 C 373.008 218.569,372.580 221.455,372.297 224.694 C 372.014 227.933,371.598 230.805,371.372 231.077 C 371.146 231.349,370.706 233.408,370.394 235.654 C 370.082 237.899,369.585 240.330,369.290 241.055 C 368.995 241.780,368.559 243.559,368.320 245.009 C 368.082 246.460,367.577 248.440,367.198 249.410 C 366.819 250.380,366.313 252.329,366.072 253.741 C 365.832 255.153,365.401 256.576,365.116 256.903 C 364.830 257.230,364.396 258.501,364.152 259.728 C 363.907 260.955,363.481 262.128,363.205 262.335 C 362.928 262.542,362.540 263.706,362.343 264.921 C 362.145 266.136,361.731 267.322,361.421 267.557 C 361.111 267.793,360.676 268.813,360.454 269.825 C 360.231 270.838,359.716 272.089,359.309 272.607 C 358.902 273.124,358.569 273.851,358.569 274.222 C 358.569 274.592,358.156 275.386,357.652 275.985 C 357.147 276.585,356.616 277.572,356.472 278.180 C 356.328 278.787,355.917 279.623,355.558 280.038 C 355.200 280.452,354.737 281.300,354.530 281.921 C 354.323 282.543,353.706 283.711,353.160 284.516 C 352.613 285.322,352.166 286.211,352.166 286.493 C 352.166 286.775,352.015 287.006,351.830 287.006 C 351.645 287.006,351.211 287.715,350.864 288.581 C 350.517 289.448,349.821 290.647,349.316 291.247 C 348.812 291.846,348.399 292.545,348.399 292.799 C 348.399 293.054,347.976 293.837,347.458 294.539 C 346.940 295.241,346.516 296.115,346.516 296.482 C 346.516 296.849,346.200 297.318,345.814 297.524 C 345.428 297.731,344.899 298.415,344.639 299.044 C 344.378 299.673,344.034 300.188,343.875 300.188 C 343.716 300.188,343.237 300.929,342.812 301.835 C 342.386 302.741,341.774 303.583,341.452 303.706 C 341.130 303.830,340.866 304.142,340.866 304.401 C 340.866 304.659,340.527 305.215,340.112 305.636 C 339.698 306.058,338.264 307.759,336.926 309.416 C 335.588 311.073,334.148 312.786,333.725 313.222 C 333.303 313.658,332.957 314.132,332.957 314.275 C 332.957 314.417,332.108 315.416,331.070 316.495 C 330.032 317.573,326.985 320.744,324.299 323.540 C 321.613 326.337,319.115 328.937,318.747 329.318 C 318.380 329.699,317.084 330.801,315.869 331.766 C 314.653 332.732,312.938 334.224,312.058 335.082 C 311.178 335.941,310.054 336.857,309.560 337.118 C 309.067 337.380,307.815 338.287,306.780 339.136 C 305.744 339.984,304.557 340.880,304.143 341.128 C 299.260 344.042,296.421 345.837,296.247 346.118 C 296.130 346.307,295.401 346.664,294.628 346.912 C 293.854 347.159,292.881 347.660,292.467 348.025 C 292.053 348.389,291.205 348.968,290.584 349.310 C 289.962 349.653,288.691 350.432,287.759 351.042 C 286.827 351.652,285.666 352.326,285.180 352.539 C 284.694 352.753,282.398 353.858,280.077 354.995 C 277.757 356.132,275.633 357.062,275.356 357.062 C 275.080 357.062,274.325 357.383,273.679 357.775 C 273.033 358.167,271.911 358.607,271.186 358.753 C 270.461 358.900,269.529 359.225,269.115 359.476 C 268.042 360.127,261.962 362.186,259.510 362.729 C 258.371 362.982,257.143 363.341,256.782 363.527 C 256.421 363.713,254.490 364.207,252.492 364.625 C 250.494 365.042,248.392 365.625,247.820 365.921 C 247.248 366.217,245.534 366.644,244.011 366.871 C 242.489 367.098,240.382 367.533,239.330 367.837 C 238.278 368.142,235.567 368.629,233.304 368.920 C 231.041 369.211,228.004 369.696,226.554 369.997 C 218.144 371.742,180.817 371.626,174.200 369.834 C 173.371 369.610,171.500 369.276,170.041 369.093 C 168.582 368.910,165.575 368.331,163.358 367.807 C 161.142 367.284,159.040 366.855,158.687 366.855 C 158.335 366.855,156.681 366.448,155.012 365.950 C 153.343 365.452,149.689 364.408,146.893 363.631 C 144.096 362.853,141.350 361.989,140.791 361.711 C 140.231 361.433,138.791 360.975,137.589 360.694 C 136.388 360.412,134.729 359.819,133.904 359.376 C 133.078 358.932,131.961 358.569,131.420 358.569 C 130.879 358.569,130.133 358.233,129.762 357.823 C 129.391 357.413,128.474 356.967,127.726 356.833 C 126.978 356.700,126.103 356.362,125.782 356.083 C 125.461 355.804,124.528 355.327,123.710 355.024 C 122.892 354.720,121.121 353.875,119.774 353.145 C 118.427 352.414,116.733 351.540,116.008 351.201 C 114.638 350.561,109.279 347.418,106.948 345.888 C 106.212 345.405,105.427 345.009,105.205 345.009 C 104.982 345.009,104.568 344.728,104.283 344.385 C 103.999 344.041,103.173 343.490,102.447 343.161 C 101.722 342.831,100.705 342.258,100.187 341.888 C 98.165 340.441,95.841 338.996,95.523 338.990 C 95.340 338.986,94.809 338.602,94.344 338.136 C 93.879 337.669,92.673 336.695,91.664 335.970 C 90.095 334.842,86.967 332.306,84.492 330.156 C 84.114 329.828,82.024 328.060,79.849 326.227 C 73.875 321.193,59.060 305.732,57.154 302.542 C 56.752 301.869,56.281 301.318,56.109 301.318 C 55.936 301.318,55.700 301.021,55.585 300.657 C 55.469 300.293,54.530 298.980,53.497 297.738 C 52.465 296.496,51.616 295.345,51.610 295.179 C 51.600 294.866,48.579 290.348,48.159 290.019 C 48.027 289.915,47.648 289.237,47.317 288.512 C 46.986 287.787,46.117 286.431,45.386 285.499 C 44.655 284.567,43.788 283.211,43.460 282.486 C 43.132 281.761,42.610 280.883,42.301 280.534 C 41.686 279.843,40.763 278.259,39.571 275.850 C 39.149 274.997,38.558 274.096,38.258 273.847 C 37.503 273.220,37.158 271.379,37.631 270.497 C 37.972 269.859,37.883 269.742,36.953 269.606 L 35.883 269.449 36.384 271.542 C 36.659 272.693,36.891 273.755,36.898 273.902 C 36.905 274.050,37.228 274.473,37.615 274.844 C 38.002 275.215,38.523 276.152,38.773 276.927 C 39.023 277.703,39.451 278.465,39.724 278.622 C 39.997 278.779,40.496 279.501,40.834 280.226 C 41.604 281.883,43.102 284.384,43.757 285.111 C 44.031 285.415,44.562 286.262,44.935 286.994 C 46.119 289.311,46.866 290.545,47.930 291.938 C 48.499 292.682,48.964 293.479,48.964 293.708 C 48.964 293.937,49.195 294.260,49.478 294.426 C 49.761 294.591,50.292 295.320,50.658 296.045 C 51.245 297.209,52.594 298.902,55.458 302.072 C 55.926 302.589,56.478 303.287,56.685 303.622 C 57.856 305.517,58.959 306.853,62.865 311.111 C 69.070 317.876,80.642 329.099,82.438 330.095 C 82.775 330.282,83.808 331.172,84.734 332.072 C 85.659 332.973,86.624 333.710,86.878 333.710 C 87.132 333.710,87.562 334.007,87.833 334.369 C 88.437 335.176,90.998 337.178,92.279 337.844 C 92.797 338.114,93.475 338.560,93.785 338.837 C 95.900 340.720,97.164 341.602,98.074 341.831 C 98.649 341.975,99.203 342.312,99.306 342.579 C 99.408 342.847,100.422 343.630,101.559 344.320 C 104.422 346.058,106.578 347.386,107.910 348.231 C 108.531 348.626,110.734 349.811,112.806 350.865 C 114.878 351.918,117.674 353.381,119.021 354.114 C 120.367 354.847,121.964 355.567,122.569 355.713 C 123.174 355.859,124.063 356.288,124.543 356.666 C 125.024 357.044,126.054 357.473,126.833 357.618 C 127.612 357.763,128.537 358.190,128.889 358.566 C 129.240 358.942,130.205 359.364,131.033 359.503 C 131.860 359.643,132.736 359.997,132.979 360.290 C 133.222 360.583,134.122 361.000,134.978 361.217 C 135.834 361.434,137.128 361.923,137.853 362.304 C 138.578 362.685,139.841 363.116,140.660 363.262 C 141.479 363.408,142.751 363.833,143.485 364.205 C 144.220 364.577,145.584 365.003,146.516 365.151 C 147.448 365.299,148.603 365.670,149.083 365.974 C 149.563 366.279,150.971 366.692,152.212 366.892 C 153.452 367.091,155.179 367.482,156.047 367.760 C 156.916 368.038,159.322 368.554,161.394 368.907 C 163.465 369.259,165.584 369.725,166.102 369.941 C 167.316 370.449,170.845 370.919,178.343 371.571 C 181.657 371.859,185.556 372.263,187.006 372.469 C 190.388 372.949,211.417 372.956,214.878 372.479 C 216.328 372.279,220.311 371.878,223.729 371.587 C 227.147 371.297,230.876 370.807,232.015 370.498 C 233.154 370.189,235.104 369.829,236.347 369.697 C 239.896 369.321,243.368 368.705,245.009 368.161 C 245.838 367.886,247.872 367.369,249.529 367.011 C 251.186 366.654,253.051 366.155,253.672 365.903 C 254.294 365.651,255.989 365.228,257.439 364.963 C 258.889 364.697,260.414 364.269,260.829 364.010 C 261.243 363.752,262.490 363.352,263.600 363.121 C 264.710 362.891,266.047 362.365,266.570 361.954 C 267.093 361.542,267.880 361.205,268.318 361.204 C 268.756 361.203,269.637 360.884,270.276 360.494 C 270.915 360.105,271.966 359.670,272.613 359.528 C 273.259 359.386,274.177 358.965,274.653 358.592 C 275.129 358.219,276.111 357.785,276.836 357.627 C 277.561 357.470,279.068 356.855,280.185 356.260 C 281.302 355.665,282.425 355.179,282.681 355.179 C 282.937 355.179,283.351 354.933,283.600 354.633 C 283.849 354.333,284.675 353.884,285.435 353.634 C 286.195 353.385,287.342 352.783,287.983 352.297 C 288.624 351.810,289.288 351.412,289.460 351.412 C 289.631 351.412,290.039 351.174,290.366 350.883 C 290.693 350.591,292.486 349.556,294.350 348.581 C 296.215 347.607,297.994 346.594,298.305 346.331 C 298.616 346.067,299.259 345.733,299.735 345.588 C 300.211 345.443,301.574 344.533,302.765 343.566 C 303.955 342.599,305.195 341.638,305.519 341.431 C 307.895 339.914,311.128 337.446,314.152 334.840 C 314.754 334.322,315.788 333.475,316.452 332.957 C 318.474 331.380,332.025 317.700,334.068 315.174 C 335.121 313.872,336.292 312.467,336.671 312.053 C 337.049 311.638,337.935 310.537,338.640 309.605 C 339.345 308.672,340.346 307.377,340.865 306.727 C 342.978 304.075,345.988 299.771,347.280 297.552 C 347.703 296.827,348.540 295.471,349.142 294.539 C 351.395 291.046,357.439 279.731,357.439 279.003 C 357.439 278.838,357.847 278.071,358.346 277.299 C 358.845 276.526,359.367 275.344,359.506 274.670 C 359.645 273.997,359.894 273.446,360.060 273.446 C 360.415 273.446,361.062 271.862,361.393 270.182 C 361.522 269.526,361.855 268.902,362.133 268.796 C 362.411 268.689,362.820 267.754,363.043 266.717 C 363.265 265.680,363.789 264.270,364.208 263.583 C 364.626 262.897,364.970 261.946,364.970 261.471 C 364.971 260.995,365.395 259.810,365.913 258.837 C 366.431 257.864,366.855 256.765,366.855 256.394 C 366.855 256.023,367.126 255.090,367.456 254.319 C 368.005 253.041,368.963 249.422,370.469 242.938 C 372.645 233.570,372.496 234.396,374.547 220.339 C 377.030 203.326,376.613 175.560,373.622 158.757 C 373.063 155.618,372.547 154.962,370.408 154.669 C 368.433 154.398,203.374 154.428,201.883 154.700 M17.434 174.576 C 17.436 175.612,17.510 175.991,17.596 175.419 C 17.683 174.846,17.680 173.999,17.591 173.535 C 17.502 173.072,17.431 173.540,17.434 174.576 M91.989 175.895 C 91.989 176.620,92.067 176.916,92.162 176.554 C 92.256 176.191,92.256 175.598,92.162 175.235 C 92.067 174.873,91.989 175.169,91.989 175.895 M17.112 187.382 C 17.112 192.354,17.165 194.336,17.231 191.786 C 17.296 189.237,17.296 185.169,17.230 182.747 C 17.165 180.325,17.111 182.411,17.112 187.382 M90.922 188.324 C 90.922 191.328,90.980 192.556,91.052 191.055 C 91.123 189.553,91.123 187.095,91.052 185.593 C 90.980 184.091,90.922 185.320,90.922 188.324 M91.989 200.753 C 91.989 201.478,92.067 201.775,92.162 201.412 C 92.256 201.050,92.256 200.457,92.162 200.094 C 92.067 199.732,91.989 200.028,91.989 200.753 M17.434 202.072 C 17.436 203.107,17.510 203.486,17.596 202.914 C 17.683 202.341,17.680 201.494,17.591 201.031 C 17.502 200.567,17.431 201.036,17.434 202.072 M25.644 244.633 C 25.644 244.840,25.968 245.603,26.365 246.328 C 26.762 247.053,27.087 247.476,27.087 247.269 C 27.087 247.062,26.762 246.299,26.365 245.574 C 25.968 244.849,25.644 244.426,25.644 244.633 M29.026 253.484 C 29.033 254.037,30.462 256.920,30.493 256.444 C 30.501 256.311,30.173 255.464,29.763 254.561 C 29.354 253.658,29.022 253.173,29.026 253.484 M32.047 261.205 C 32.047 261.412,32.371 262.175,32.768 262.900 C 33.165 263.625,33.490 264.049,33.490 263.842 C 33.490 263.635,33.165 262.872,32.768 262.147 C 32.371 261.422,32.047 260.998,32.047 261.205 " stroke="none" fill="#869c98" fill-rule="evenodd"></path><path id="path4" d="M93.870 226.441 C 93.025 227.125,91.262 228.473,89.952 229.437 C 85.617 232.629,81.553 235.708,80.914 236.285 C 80.567 236.598,79.890 237.065,79.410 237.321 C 78.930 237.578,78.031 238.296,77.411 238.915 C 76.791 239.535,73.779 242.007,70.717 244.409 C 62.722 250.680,62.530 250.827,59.307 253.107 C 57.697 254.247,55.922 255.603,55.362 256.121 C 54.803 256.638,53.802 257.486,53.138 258.004 C 52.473 258.522,51.474 259.321,50.918 259.780 C 49.057 261.315,45.852 263.829,44.104 265.124 C 43.152 265.829,41.756 266.931,41.001 267.572 C 40.247 268.213,39.188 269.107,38.647 269.557 C 37.400 270.597,37.386 271.927,38.606 273.378 C 39.124 273.993,39.548 274.760,39.548 275.082 C 39.548 275.404,39.983 276.137,40.516 276.712 C 41.048 277.286,41.577 278.222,41.690 278.791 C 41.804 279.361,42.205 279.924,42.580 280.044 C 42.955 280.163,43.367 280.740,43.496 281.326 C 43.625 281.912,44.145 282.781,44.652 283.258 C 45.159 283.734,45.574 284.414,45.574 284.768 C 45.574 285.122,45.985 285.682,46.487 286.011 C 46.990 286.340,47.521 286.995,47.669 287.466 C 47.817 287.938,48.338 288.803,48.827 289.389 C 49.317 289.974,49.718 290.689,49.718 290.976 C 49.718 291.264,50.056 291.680,50.471 291.902 C 50.885 292.124,51.224 292.530,51.224 292.805 C 51.224 293.080,51.733 293.945,52.354 294.727 C 52.976 295.509,53.484 296.360,53.484 296.619 C 53.484 296.877,53.908 297.366,54.426 297.705 C 54.944 298.045,55.374 298.530,55.383 298.785 C 55.391 299.039,55.899 299.834,56.512 300.551 C 57.126 301.268,57.627 302.067,57.627 302.327 C 57.627 302.586,57.964 302.979,58.376 303.199 C 58.788 303.420,59.230 304.019,59.358 304.531 C 59.487 305.043,59.763 305.461,59.972 305.461 C 60.388 305.461,63.277 308.234,63.277 308.632 C 63.277 309.296,78.896 324.933,79.867 325.241 C 80.250 325.363,80.666 325.784,80.791 326.177 C 80.916 326.570,81.348 326.997,81.752 327.125 C 82.156 327.253,82.662 327.685,82.876 328.086 C 83.090 328.486,83.488 328.814,83.760 328.814 C 84.031 328.814,84.837 329.364,85.550 330.038 C 88.702 333.014,91.347 335.217,91.769 335.217 C 92.022 335.217,92.332 335.544,92.459 335.944 C 92.586 336.344,93.173 336.777,93.764 336.907 C 94.355 337.037,94.918 337.446,95.015 337.818 C 95.115 338.200,95.682 338.590,96.326 338.719 C 96.950 338.844,97.748 339.233,98.099 339.584 C 98.699 340.184,99.187 340.479,102.731 342.376 C 103.508 342.792,104.313 343.351,104.520 343.618 C 104.727 343.885,105.490 344.330,106.215 344.608 C 106.940 344.886,107.792 345.401,108.108 345.753 C 108.425 346.104,109.150 346.509,109.720 346.652 C 110.290 346.796,111.121 347.332,111.567 347.844 C 112.012 348.357,112.659 348.776,113.004 348.776 C 113.349 348.776,113.939 349.116,114.316 349.532 C 114.692 349.949,115.668 350.489,116.485 350.734 C 117.301 350.978,118.051 351.392,118.151 351.653 C 118.251 351.914,119.151 352.399,120.151 352.731 C 121.150 353.063,122.062 353.580,122.178 353.880 C 122.293 354.180,122.604 354.427,122.870 354.428 C 124.049 354.433,126.177 355.260,126.177 355.713 C 126.177 356.029,126.884 356.306,128.100 356.467 C 129.472 356.649,130.073 356.910,130.195 357.377 C 130.323 357.867,131.042 358.139,133.039 358.453 C 134.661 358.709,135.836 359.096,136.027 359.438 C 136.222 359.785,137.214 360.102,138.621 360.265 C 139.875 360.411,141.664 360.936,142.596 361.431 C 143.528 361.927,145.258 362.440,146.439 362.570 C 147.621 362.701,149.098 363.114,149.722 363.488 C 150.345 363.862,151.786 364.284,152.923 364.425 C 154.060 364.565,155.584 365.020,156.309 365.434 C 157.198 365.942,158.793 366.292,161.205 366.508 C 163.173 366.684,164.814 366.834,164.851 366.842 C 164.888 366.849,165.194 367.131,165.532 367.469 C 165.985 367.922,167.266 368.160,170.420 368.376 C 172.793 368.539,175.254 368.923,175.954 369.239 C 176.646 369.552,177.574 369.912,178.016 370.038 C 179.212 370.380,222.165 370.389,223.917 370.048 C 224.746 369.887,225.801 369.509,226.263 369.208 C 226.808 368.854,228.802 368.558,231.957 368.365 C 235.693 368.136,237.057 367.907,237.880 367.367 C 238.635 366.873,239.967 366.600,242.412 366.441 C 245.123 366.265,246.093 366.045,246.874 365.430 C 247.474 364.958,248.730 364.543,250.019 364.392 C 251.200 364.252,252.512 363.922,252.934 363.657 C 253.357 363.392,254.713 362.976,255.947 362.732 C 257.182 362.489,259.379 361.892,260.829 361.406 C 262.279 360.920,264.143 360.408,264.972 360.269 C 265.800 360.129,266.817 359.709,267.232 359.335 C 267.664 358.946,268.907 358.546,270.147 358.398 C 271.499 358.236,272.432 357.919,272.637 357.553 C 272.826 357.214,273.822 356.831,274.994 356.645 C 276.110 356.469,277.218 356.058,277.456 355.732 C 277.695 355.406,278.543 354.962,279.340 354.746 C 280.138 354.530,281.130 354.059,281.544 353.700 C 281.959 353.341,283.018 352.842,283.898 352.591 C 284.779 352.341,285.499 351.964,285.499 351.755 C 285.499 351.545,286.132 351.110,286.905 350.786 C 287.679 350.463,288.536 349.879,288.810 349.487 C 289.084 349.096,289.632 348.776,290.027 348.776 C 290.423 348.776,291.266 348.267,291.902 347.646 C 292.538 347.024,293.393 346.516,293.802 346.516 C 294.211 346.516,294.836 346.177,295.191 345.763 C 295.546 345.348,296.029 345.009,296.265 345.009 C 296.502 345.009,297.306 344.543,298.053 343.974 C 300.222 342.320,302.558 340.948,303.685 340.665 C 304.259 340.521,304.889 340.103,305.085 339.736 C 305.281 339.370,305.870 338.962,306.393 338.831 C 306.916 338.700,307.345 338.343,307.345 338.039 C 307.345 337.735,307.895 337.253,308.569 336.969 C 309.242 336.684,310.497 335.672,311.357 334.720 C 312.217 333.768,313.345 332.883,313.863 332.753 C 314.382 332.623,314.891 332.192,314.995 331.797 C 315.098 331.401,315.495 330.962,315.878 330.821 C 316.260 330.680,316.713 330.331,316.885 330.045 C 317.057 329.759,317.608 329.369,318.109 329.179 C 319.327 328.716,319.258 328.218,317.797 326.892 C 317.123 326.281,316.142 325.362,315.617 324.849 C 315.091 324.337,314.453 323.917,314.199 323.917 C 313.944 323.917,312.952 323.154,311.992 322.222 C 311.033 321.290,310.108 320.527,309.935 320.527 C 309.763 320.527,309.339 320.095,308.992 319.566 C 308.646 319.038,307.870 318.351,307.269 318.040 C 306.147 317.460,305.796 317.189,303.659 315.248 C 302.979 314.630,302.230 314.124,301.996 314.124 C 301.762 314.124,301.301 313.871,300.973 313.561 C 300.100 312.736,296.829 310.358,296.568 310.358 C 296.223 310.358,288.599 303.881,286.260 301.601 C 285.675 301.031,285.020 300.565,284.804 300.565 C 284.588 300.565,284.165 300.213,283.864 299.783 C 283.563 299.353,282.815 298.717,282.202 298.371 C 279.744 296.979,278.304 295.924,277.943 295.249 C 277.734 294.858,277.301 294.539,276.980 294.539 C 276.523 294.539,273.733 292.576,272.693 291.523 C 272.589 291.418,271.686 290.740,270.685 290.016 C 269.684 289.293,268.073 287.973,267.107 287.084 C 266.140 286.195,264.882 285.216,264.313 284.909 C 263.743 284.601,263.277 284.191,263.277 283.996 C 263.277 283.449,261.895 282.838,261.233 283.092 C 260.907 283.217,260.640 283.565,260.640 283.864 C 260.640 284.163,260.043 284.657,259.313 284.962 C 258.584 285.267,257.651 285.851,257.242 286.261 C 256.832 286.671,256.276 287.006,256.005 287.006 C 255.735 287.006,254.939 287.429,254.237 287.947 C 253.535 288.465,252.694 288.889,252.368 288.889 C 252.042 288.889,251.185 289.286,250.464 289.772 C 249.743 290.258,248.646 290.780,248.026 290.932 C 247.407 291.084,246.814 291.346,246.708 291.514 C 246.213 292.303,239.223 294.656,236.911 294.812 C 235.122 294.934,234.238 295.187,233.627 295.755 C 232.996 296.341,232.048 296.597,229.754 296.799 C 227.411 297.005,226.598 297.229,226.195 297.780 C 225.735 298.409,225.000 298.517,220.003 298.690 C 214.918 298.867,214.276 298.964,213.788 299.632 C 212.944 300.787,188.862 300.790,187.585 299.636 C 186.894 299.011,185.994 298.857,181.832 298.650 C 177.685 298.444,176.820 298.297,176.401 297.724 C 176.023 297.206,175.195 296.990,172.970 296.826 C 170.719 296.660,169.788 296.413,168.961 295.763 C 168.183 295.151,167.380 294.915,166.075 294.915 C 164.119 294.915,162.580 294.461,161.761 293.641 C 161.476 293.356,160.483 293.009,159.556 292.870 C 158.628 292.731,157.475 292.311,156.994 291.938 C 156.514 291.564,155.473 291.047,154.682 290.789 C 153.890 290.531,153.151 290.080,153.039 289.787 C 152.926 289.495,152.085 289.066,151.169 288.836 C 150.254 288.605,149.338 288.105,149.134 287.724 C 148.930 287.343,148.105 286.854,147.302 286.638 C 146.498 286.421,145.750 286.009,145.639 285.721 C 145.529 285.434,144.834 284.999,144.094 284.754 C 143.355 284.510,142.750 284.083,142.750 283.805 C 142.750 283.527,142.241 283.187,141.620 283.051 C 140.999 282.915,140.279 282.520,140.019 282.174 C 139.454 281.418,135.967 278.719,135.557 278.719 C 135.398 278.719,135.163 278.391,135.036 277.990 C 134.908 277.589,134.431 277.207,133.975 277.143 C 133.518 277.078,132.978 276.643,132.773 276.177 C 132.569 275.711,132.211 275.330,131.978 275.330 C 131.744 275.330,130.922 274.828,130.151 274.215 C 129.379 273.601,128.423 272.997,128.027 272.871 C 127.631 272.745,127.307 272.404,127.307 272.112 C 127.307 271.821,126.819 271.330,126.223 271.022 C 125.626 270.713,125.038 270.200,124.916 269.882 C 124.794 269.564,124.439 269.303,124.127 269.303 C 123.815 269.303,123.297 268.795,122.976 268.173 C 122.654 267.552,122.222 267.043,122.015 267.043 C 121.808 267.043,121.483 266.634,121.293 266.134 C 121.103 265.634,120.598 265.114,120.172 264.979 C 119.746 264.843,119.397 264.501,119.397 264.219 C 119.397 263.936,118.902 263.352,118.296 262.921 C 117.689 262.488,117.084 261.631,116.947 261.009 C 116.811 260.388,116.374 259.707,115.977 259.494 C 115.579 259.281,115.254 258.842,115.254 258.518 C 115.254 258.194,114.788 257.451,114.218 256.867 C 112.207 254.803,111.573 254.039,111.096 253.107 C 110.832 252.589,110.303 251.944,109.921 251.674 C 109.540 251.403,109.228 250.946,109.228 250.659 C 109.228 250.372,108.923 249.915,108.550 249.645 C 108.177 249.374,107.653 248.614,107.385 247.956 C 107.118 247.297,106.576 246.466,106.180 246.108 C 105.785 245.750,105.461 245.149,105.461 244.771 C 105.461 244.394,105.055 243.819,104.558 243.493 C 104.004 243.130,103.555 242.368,103.396 241.520 C 103.253 240.760,102.819 239.916,102.431 239.644 C 102.043 239.372,101.613 238.519,101.475 237.748 C 101.338 236.977,100.922 236.008,100.552 235.593 C 100.182 235.179,99.681 234.095,99.439 233.184 C 99.198 232.274,98.650 231.056,98.223 230.478 C 97.780 229.879,97.367 228.607,97.263 227.519 C 97.162 226.470,96.945 225.612,96.781 225.612 C 96.618 225.612,96.241 225.519,95.945 225.405 C 95.649 225.292,94.715 225.758,93.870 226.441 " stroke="none" fill="#503e57" fill-rule="evenodd"></path></g></svg>