<?xml version="1.0" standalone="no"?>
<!DOCTYPE svg PUBLIC "-//W3C//DTD SVG 20010904//EN"
 "http://www.w3.org/TR/2001/REC-SVG-20010904/DTD/svg10.dtd">
<svg version="1.0" xmlns="http://www.w3.org/2000/svg"
 width="810.000000pt" height="831.000000pt" viewBox="0 0 810.000000 831.000000"
 preserveAspectRatio="xMidYMid meet">
<metadata>
Created by potrace 1.10, written by Peter Selinger 2001-2011
</metadata>
<g transform="translate(0.000000,831.000000) scale(0.100000,-0.100000)"
fill="#000000" stroke="none">
<path d="M3575 8260 c-198 -10 -325 -24 -353 -39 -11 -6 -33 -11 -49 -11 -15
0 -41 -7 -57 -15 -15 -8 -40 -15 -55 -15 -14 0 -46 -6 -71 -14 -77 -24 -133
-38 -180 -43 -25 -3 -54 -12 -65 -19 -26 -18 -69 -18 -85 1 -16 19 -83 20
-118 1 -29 -15 -88 -41 -112 -50 -8 -3 -23 -10 -32 -16 -10 -5 -26 -15 -35
-20 -10 -6 -25 -13 -33 -16 -8 -3 -22 -10 -30 -15 -8 -5 -27 -14 -42 -20 -16
-6 -28 -15 -28 -20 0 -5 -7 -9 -15 -9 -14 0 -103 -57 -190 -124 -49 -37 -65
-53 -88 -88 -10 -16 -24 -28 -32 -28 -8 0 -18 -6 -22 -13 -4 -7 -34 -30 -65
-51 -32 -21 -58 -42 -58 -47 0 -5 -5 -9 -11 -9 -21 0 -401 -310 -443 -362 -21
-25 -148 -170 -156 -178 -3 -3 -30 -36 -60 -75 -30 -38 -64 -79 -76 -90 -12
-11 -27 -32 -35 -46 -8 -15 -29 -44 -46 -65 -45 -54 -87 -111 -168 -232 -110
-162 -205 -315 -205 -327 0 -4 -12 -26 -28 -49 -29 -44 -63 -110 -137 -271
-103 -222 -150 -336 -162 -395 -3 -14 -12 -34 -19 -45 -8 -11 -14 -29 -14 -41
0 -12 -7 -35 -15 -50 -8 -16 -15 -36 -15 -45 0 -9 -7 -30 -15 -45 -8 -16 -15
-44 -15 -62 0 -18 -7 -49 -15 -69 -8 -19 -15 -50 -15 -69 0 -18 -5 -45 -12
-61 -6 -15 -15 -55 -19 -88 -4 -33 -12 -89 -18 -125 -21 -130 -41 -460 -41
-675 2 -384 27 -668 75 -850 32 -120 37 -142 44 -185 4 -25 13 -55 19 -67 7
-12 12 -34 12 -50 0 -15 7 -37 15 -47 8 -11 15 -31 15 -45 0 -14 7 -35 15 -45
8 -11 15 -29 15 -41 0 -12 7 -30 15 -41 8 -10 15 -28 15 -40 0 -11 7 -29 15
-40 8 -10 15 -28 15 -39 0 -11 7 -29 15 -39 8 -11 15 -30 15 -42 0 -12 7 -27
15 -34 8 -7 15 -19 15 -27 0 -8 6 -27 14 -41 8 -15 42 -85 76 -157 34 -71 65
-137 70 -145 5 -8 19 -35 32 -60 20 -41 101 -179 138 -235 8 -13 34 -54 58
-92 23 -37 48 -77 55 -88 24 -38 160 -220 172 -230 7 -6 25 -28 39 -50 45 -66
271 -306 397 -420 24 -23 73 -63 109 -90 36 -27 70 -53 75 -57 6 -5 33 -25 60
-45 28 -20 54 -43 58 -50 4 -7 16 -13 25 -13 9 0 30 -14 46 -30 16 -17 33 -30
38 -30 19 0 76 -52 87 -78 8 -18 47 -51 109 -92 117 -78 132 -88 154 -96 10
-3 18 -10 18 -14 0 -5 12 -13 28 -19 15 -6 54 -27 87 -45 166 -94 298 -156
336 -156 8 0 31 14 50 30 30 27 38 30 74 24 22 -3 47 -10 55 -14 15 -8 109
-34 180 -50 19 -5 80 -20 135 -33 201 -50 266 -62 510 -89 166 -19 766 -16
920 5 72 9 153 19 180 22 74 9 343 57 425 77 25 6 63 14 85 17 22 4 50 13 62
19 12 7 33 12 48 12 14 0 37 7 50 16 17 11 52 17 115 18 53 1 95 7 102 14 7 7
20 12 29 12 10 0 30 6 46 14 15 7 46 21 68 31 22 9 56 24 75 32 19 8 42 19 50
24 8 5 22 12 30 15 8 3 22 10 30 15 8 5 22 12 30 15 8 3 22 10 30 15 8 5 22
12 30 15 8 3 22 10 30 15 8 5 21 11 28 14 32 13 39 17 67 35 17 11 37 23 45
26 32 15 99 76 106 97 6 20 25 38 66 62 45 26 135 90 151 107 10 10 37 30 60
45 23 14 62 45 87 67 88 79 387 382 450 456 36 41 67 77 70 80 3 3 17 21 30
40 13 19 27 37 30 40 11 8 192 264 244 345 46 71 84 141 161 295 37 74 71 142
76 150 5 8 12 22 15 30 3 8 13 33 21 55 19 50 42 102 60 137 7 14 13 35 13 45
0 11 7 28 15 39 8 10 15 31 15 46 0 25 16 72 42 122 5 10 13 39 18 65 4 25 15
75 23 111 9 36 21 92 27 125 7 33 18 83 25 110 18 65 35 190 40 290 5 113 15
165 31 165 12 0 14 62 14 366 0 209 -4 363 -9 360 -13 -8 -20 31 -37 189 -28
268 -31 290 -41 310 -6 11 -13 42 -17 69 -3 27 -10 54 -15 60 -5 6 -14 34 -19
61 -6 28 -18 75 -27 105 -10 30 -19 69 -22 87 -3 18 -11 38 -19 44 -8 6 -14
24 -14 40 0 16 -6 43 -14 61 -8 18 -24 58 -36 88 -12 30 -34 81 -51 113 -16
31 -29 64 -29 71 0 8 -20 56 -45 108 -25 51 -45 98 -45 105 0 10 -18 51 -42
93 -4 8 -11 22 -14 30 -29 71 -106 210 -137 246 -21 24 -52 69 -69 101 -99
186 -257 413 -418 598 -100 115 -345 359 -441 440 -62 52 -174 141 -193 154
-11 8 -53 39 -93 68 -40 29 -75 53 -77 53 -12 0 -82 53 -110 83 -54 58 -143
115 -325 209 -63 33 -142 69 -175 80 -34 11 -67 25 -74 31 -6 5 -41 11 -77 12
-42 1 -71 7 -82 17 -10 9 -34 18 -53 21 -19 2 -50 10 -67 16 -103 35 -100 34
-233 61 -30 7 -69 16 -86 21 -17 5 -63 13 -102 18 -39 5 -75 11 -80 15 -5 3
-55 12 -113 21 -121 19 -754 28 -1024 15z m725 -1006 c0 -9 -5 -14 -12 -12
-18 6 -21 28 -4 28 9 0 16 -7 16 -16z m1012 -33 c21 -18 23 -31 5 -31 -14 0
-47 35 -47 51 0 11 13 5 42 -20z m-1092 -68 c0 -14 -42 -93 -50 -93 -5 0 -13
-12 -18 -27 l-10 -28 -1 30 c0 31 9 51 44 98 19 25 35 35 35 20z m1191 -41
c-19 -6 -41 6 -41 23 0 14 3 13 26 -2 15 -9 21 -19 15 -21z m-1129 -439 c38
-37 49 -63 26 -63 -16 0 -88 71 -88 87 0 23 23 14 62 -24z m-832 -123 c0 -6
-10 -15 -22 -21 -41 -18 -64 -34 -95 -64 -62 -61 -85 -77 -95 -67 -20 20 74
119 130 136 12 4 22 12 22 17 0 5 14 9 30 9 17 0 30 -5 30 -10z m-290 -165 c0
-8 -4 -15 -10 -15 -5 0 -10 7 -10 15 0 8 5 15 10 15 6 0 10 -7 10 -15z m-633
-140 c-7 -16 -37 -21 -37 -5 0 10 32 31 39 25 2 -2 1 -11 -2 -20z m1432 -24
c9 -6 10 -10 2 -16 -16 -9 -44 2 -36 15 8 12 16 12 34 1z m106 -1 c4 -6 -5
-10 -19 -10 -14 0 -26 5 -26 10 0 6 9 10 19 10 11 0 23 -4 26 -10z m-1752 -26
c10 -11 -27 -44 -50 -44 -28 0 -22 23 10 38 27 13 32 14 40 6z m118 -20 c-20
-26 -81 -64 -101 -64 -16 0 -12 20 6 27 9 3 30 19 47 34 17 16 40 29 50 29 17
0 17 -1 -2 -26z m671 -56 c-15 -15 -26 -4 -18 18 5 13 9 15 18 6 9 -9 9 -15 0
-24z m-636 -13 c-16 -13 -33 -22 -39 -18 -6 4 -2 10 10 14 12 4 24 12 28 18 3
6 12 11 18 11 7 0 -1 -11 -17 -25z m111 -11 c-12 -19 -27 -43 -32 -52 -6 -9
-22 -35 -36 -57 -14 -22 -29 -49 -34 -60 -7 -18 -9 -17 -16 12 -8 27 -5 38 20
75 34 50 98 118 111 118 5 0 -1 -16 -13 -36z m-271 -6 c-3 -13 -6 -31 -6 -40
0 -13 -8 -18 -31 -18 -17 0 -42 -9 -56 -20 -25 -20 -63 -27 -63 -12 1 19 51
62 97 81 11 6 24 15 28 20 3 6 13 11 22 11 11 0 14 -6 9 -22z m59 -28 c-3 -5
-13 -10 -21 -10 -8 0 -14 5 -14 10 0 6 9 10 21 10 11 0 17 -4 14 -10z m1248
-46 c11 -11 -37 -54 -60 -54 -13 0 -23 -4 -23 -10 0 -5 -7 -10 -15 -10 -26 0
-16 14 32 48 49 34 56 36 66 26z m-1495 -36 c-6 -18 -28 -21 -28 -4 0 9 7 16
16 16 9 0 14 -5 12 -12z m392 -178 c0 -5 -6 -13 -13 -17 -7 -4 -30 -30 -51
-58 -37 -49 -63 -71 -72 -62 -9 9 24 56 70 101 48 45 66 55 66 36z m-146 -29
c3 -5 -1 -11 -9 -15 -15 -6 -29 7 -18 18 9 9 21 8 27 -3z m2041 -120 c22 -5
72 -16 110 -25 39 -9 92 -21 119 -26 57 -12 74 -23 78 -53 2 -12 10 -23 18
-23 8 -1 23 -2 33 -3 9 0 17 -8 17 -16 0 -17 -16 -20 -25 -5 -9 15 -19 12 -33
-10 -14 -23 -7 -41 29 -82 20 -23 26 -24 61 -15 50 12 67 -1 50 -38 -6 -14
-20 -25 -30 -25 -10 0 -27 -7 -38 -15 -10 -8 -27 -15 -38 -15 -17 0 -18 -6
-11 -57 4 -32 11 -66 16 -75 10 -18 30 -23 43 -11 9 10 78 33 97 33 9 0 22 -6
28 -14 8 -10 3 -24 -24 -59 -19 -25 -41 -50 -48 -54 -7 -4 -20 -20 -30 -35
-19 -31 -48 -36 -67 -13 -11 13 -18 10 -56 -25 -24 -22 -50 -40 -59 -40 -8 0
-15 -6 -15 -13 0 -15 -61 -47 -90 -47 -30 0 -24 18 19 65 23 26 44 61 51 87
35 131 56 182 112 259 15 21 4 49 -20 49 -17 0 -35 -24 -44 -58 -3 -10 -10 -8
-30 7 -20 16 -28 18 -36 8 -14 -16 -32 -163 -25 -198 3 -16 -2 -37 -12 -53
-19 -29 -35 -26 -35 7 0 42 -13 50 -48 30 l-32 -18 -108 56 c-59 32 -138 66
-177 77 -92 27 -225 36 -295 21 -30 -6 -73 -14 -96 -18 -47 -8 -146 -74 -120
-79 9 -2 22 1 29 6 32 25 93 23 240 -8 47 -9 147 -66 147 -84 0 -4 -12 -5 -27
-2 -70 17 -180 18 -214 3 -19 -8 -44 -18 -56 -22 -13 -3 -23 -11 -23 -16 0 -5
-8 -9 -18 -9 -10 0 -23 -5 -29 -11 -6 -6 -21 -16 -34 -23 -26 -13 -46 -42 -36
-52 9 -10 77 28 77 43 0 6 9 15 20 18 11 3 20 10 20 15 0 5 13 11 30 15 16 4
32 11 35 16 9 14 120 11 152 -5 15 -8 36 -17 46 -20 9 -3 17 -10 17 -16 0 -6
-45 -10 -124 -10 -98 0 -126 -3 -136 -15 -7 -8 -21 -15 -31 -15 -10 0 -24 -10
-30 -22 -11 -20 -7 -27 42 -71 29 -27 66 -54 81 -59 15 -6 25 -14 22 -19 -9
-15 -71 -10 -78 6 -3 8 -12 15 -20 15 -8 0 -16 6 -19 13 -2 6 -8 9 -12 4 -14
-12 67 -77 96 -77 15 0 32 -7 39 -15 7 -8 22 -15 34 -15 11 0 27 -4 35 -9 14
-9 10 -13 -33 -36 -29 -15 -31 -35 -4 -35 68 0 184 46 343 136 92 52 166 82
222 91 44 7 74 -24 67 -69 -3 -18 -8 -109 -12 -201 -5 -130 -4 -174 6 -193 23
-44 27 -118 7 -148 -18 -27 -72 -56 -106 -56 -11 0 -28 -5 -38 -12 -24 -15
-51 -4 -51 21 0 18 -6 19 -77 14 -43 -2 -93 -4 -110 -4 -37 0 -39 -7 -17 -55
15 -31 57 -54 99 -54 5 0 21 -11 35 -25 14 -13 42 -40 63 -59 35 -32 37 -38
37 -95 0 -49 -3 -62 -19 -71 -28 -14 -102 -12 -131 5 -14 8 -47 14 -74 15 -40
0 -57 -6 -97 -36 -66 -48 -125 -117 -160 -186 -16 -32 -34 -58 -39 -58 -5 0
-12 -11 -16 -24 -3 -14 -14 -32 -25 -42 -14 -13 -19 -31 -19 -71 0 -58 14 -71
25 -23 4 17 10 30 14 30 15 0 43 -78 49 -135 3 -39 15 -79 34 -113 27 -51 37
-102 19 -102 -5 0 -12 -16 -15 -36 -4 -19 -9 -41 -12 -48 -5 -14 65 -48 123
-61 34 -7 58 -28 49 -44 -4 -5 -23 -15 -43 -22 -20 -6 -57 -25 -82 -41 -62
-39 -113 -52 -124 -33 -5 9 -23 15 -49 15 -34 0 -46 6 -77 40 -37 40 -55 51
-45 27 6 -18 -20 -52 -34 -43 -7 4 -12 14 -12 22 0 8 -20 34 -44 58 -33 32
-42 46 -34 54 9 9 7 17 -6 31 -10 11 -15 25 -11 31 4 7 -3 25 -15 42 -12 17
-25 48 -27 69 -4 30 -10 39 -24 39 -11 0 -19 -4 -19 -10 0 -16 -20 -12 -27 6
-4 11 24 84 33 84 0 0 15 -5 33 -11 23 -8 31 -17 31 -34 0 -13 5 -27 10 -30 6
-3 10 -15 10 -25 0 -21 49 -82 50 -62 0 7 -11 37 -24 65 -13 29 -31 76 -40
106 -9 30 -25 64 -35 75 -32 34 -36 71 -12 95 23 23 20 41 -6 41 -12 0 -14 6
-8 28 12 52 25 137 31 210 3 41 14 99 25 129 10 31 19 64 19 73 0 9 20 56 45
104 25 49 45 99 45 112 0 12 5 26 10 29 15 10 12 35 -5 35 -8 0 -15 -4 -15 -9
0 -5 -10 -12 -22 -15 -13 -3 -41 -21 -62 -40 -22 -20 -54 -40 -70 -46 -17 -7
-38 -16 -46 -21 -31 -18 -83 -39 -99 -39 -25 0 -107 -91 -121 -135 -7 -22 -21
-54 -31 -71 -11 -17 -19 -40 -19 -50 0 -11 -14 -62 -30 -114 -30 -93 -39 -180
-20 -180 6 0 10 -5 10 -11 0 -8 -4 -8 -12 -2 -7 6 -25 13 -40 17 -16 3 -28 12
-28 19 0 7 -12 30 -26 50 -25 38 -28 87 -4 87 6 0 10 5 10 10 0 6 -8 10 -19
10 -28 0 -39 20 -39 70 1 25 -7 60 -17 80 -14 28 -19 66 -23 180 -8 258 31
384 174 564 36 45 81 106 101 135 44 66 113 203 113 223 0 9 9 36 20 61 11 25
25 69 30 99 27 143 63 213 128 248 20 11 113 70 207 131 220 144 269 168 385
190 53 10 317 3 375 -10z m-1640 -1 c12 -19 -38 -49 -82 -50 -24 0 -43 3 -43
8 0 9 80 50 102 51 9 1 20 -4 23 -9z m2055 -203 c0 -19 -10 -27 -26 -20 -11 4
-12 9 -3 19 15 18 29 18 29 1z m110 -51 c-18 -18 -34 8 -19 35 l12 23 9 -24
c5 -15 5 -27 -2 -34z m1568 35 c3 -8 -1 -12 -9 -9 -7 2 -15 10 -17 17 -3 8 1
12 9 9 7 -2 15 -10 17 -17z m-3770 -335 c5 -27 -15 -36 -80 -36 -31 0 -60 -5
-64 -11 -4 -6 -30 -9 -65 -7 -51 3 -61 0 -73 -18 -13 -18 -26 -21 -72 -21 -47
0 -60 -4 -73 -22 -21 -28 -91 -41 -91 -18 0 23 45 69 64 65 8 -2 21 6 30 17
14 19 15 19 34 2 20 -18 22 -18 76 12 37 21 74 33 113 36 31 3 61 9 66 14 5 5
37 8 70 8 52 -2 62 -5 65 -21z m3477 -136 c0 -8 -8 -16 -17 -18 -13 -2 -18 3
-18 18 0 15 5 20 18 18 9 -2 17 -10 17 -18z m-4015 -26 c0 -11 -49 -52 -70
-59 -11 -3 -20 -10 -20 -15 0 -5 -12 -20 -26 -33 -22 -21 -29 -23 -50 -13 -14
7 -24 20 -24 33 0 26 17 40 32 25 6 -6 18 -2 35 14 14 13 31 24 38 24 7 0 18
7 25 15 12 15 60 21 60 9z m1678 -6 c-7 -20 -68 -23 -68 -4 0 12 10 16 36 16
24 0 34 -4 32 -12z m99 -10 c13 -12 23 -25 23 -30 0 -14 -30 -9 -36 6 -3 8
-17 17 -30 20 -14 4 -22 11 -19 16 10 17 37 11 62 -12z m2208 -19 c10 -15 -1
-23 -20 -15 -9 3 -13 10 -10 16 8 13 22 13 30 -1z m-4181 -147 c2 -4 -6 -18
-20 -31 -19 -18 -24 -20 -24 -7 0 9 5 16 10 16 6 0 10 7 10 15 0 16 15 20 24
7z m2906 -42 c0 -12 -8 -12 -35 0 -18 8 -17 9 8 9 15 1 27 -3 27 -9z m-2960
-54 c0 -18 -16 -29 -30 -21 -13 8 -1 35 16 35 8 0 14 -6 14 -14z m2900 4 c13
-9 13 -10 0 -10 -8 0 -28 -7 -45 -16 -51 -28 -85 -35 -85 -18 0 35 24 54 70
54 25 0 52 -5 60 -10z m-2240 -119 c0 -12 -20 -25 -27 -18 -7 7 6 27 18 27 5
0 9 -4 9 -9z m3328 -94 c2 -11 -3 -17 -17 -17 -25 0 -38 19 -20 31 19 12 33 6
37 -14z m62 -32 c0 -9 -9 -15 -25 -15 -16 0 -25 6 -25 15 0 9 9 15 25 15 16 0
25 -6 25 -15z m55 -31 c0 -10 -8 -20 -18 -22 -22 -4 -35 27 -16 39 20 12 34 5
34 -17z m65 -20 c0 -8 -4 -14 -10 -14 -5 0 -10 9 -10 21 0 11 5 17 10 14 6 -3
10 -13 10 -21z m-4382 -334 c-2 -19 -8 -35 -15 -37 -17 -6 -25 31 -13 62 14
37 33 20 28 -25z m352 10 c0 -11 7 -23 15 -26 20 -8 19 -43 -1 -51 -23 -9 -42
20 -42 63 0 22 5 34 14 34 8 0 14 -9 14 -20z m-338 -117 c20 -18 25 -77 6 -71
-22 8 -49 53 -42 71 8 21 13 21 36 0z m138 -114 c0 -24 -4 -29 -26 -29 -22 0
-24 3 -18 23 16 53 44 57 44 6z m4206 -92 c-15 -19 -34 -34 -44 -33 -11 1 -18
-8 -20 -24 -2 -14 -10 -29 -18 -33 -8 -4 -14 -17 -14 -27 0 -26 -14 -32 -36
-16 -14 11 -16 17 -7 27 6 8 13 25 15 39 1 14 13 29 25 35 12 5 23 19 25 30 2
13 12 21 30 23 14 2 32 10 39 18 8 9 16 11 22 5 6 -6 0 -22 -17 -44z m-3226
-79 c12 -40 27 -77 31 -82 5 -6 9 -18 9 -27 0 -9 14 -31 30 -49 20 -21 30 -43
31 -64 0 -18 17 -59 44 -101 23 -38 41 -74 38 -78 -3 -5 -10 -2 -16 5 -19 23
-106 90 -171 133 -38 25 -64 50 -71 68 -8 26 -6 32 23 55 36 30 40 54 17 120
-14 40 -12 92 4 92 4 0 18 -33 31 -72z m-344 -139 c10 -17 -13 -36 -27 -22
-12 12 -4 33 11 33 5 0 12 -5 16 -11z m-116 -24 c0 -7 -7 -28 -15 -46 l-14
-34 -1 52 c0 43 3 51 15 47 8 -4 15 -12 15 -19z m980 -131 c0 -14 -4 -23 -10
-19 -5 3 -10 15 -10 26 0 10 5 19 10 19 6 0 10 -12 10 -26z m-1142 -43 c3 -21
-31 -71 -49 -71 -20 0 -19 41 2 70 26 34 42 34 47 1z m1770 -14 c2 -19 -1 -27
-13 -27 -19 0 -30 24 -21 46 9 23 31 11 34 -19z m92 -12 c0 -16 -45 -21 -54
-6 -8 12 4 21 31 21 14 0 23 -6 23 -15z m-125 -56 c4 -5 18 -14 31 -19 26 -10
23 -40 -4 -40 -20 0 -62 39 -62 57 0 16 26 17 35 2z m-1707 -141 c-5 -32 -28
-35 -28 -4 0 17 5 26 16 26 10 0 14 -7 12 -22z m-18 -58 c10 -10 16 -21 11
-24 -4 -3 -15 4 -24 15 -29 33 -19 41 13 9z m3804 -15 c-10 -15 -20 -23 -22
-17 -3 10 29 52 36 46 2 -1 -4 -15 -14 -29z m349 0 c1 -5 -9 -12 -23 -13 -14
-2 -31 -9 -38 -14 -21 -18 -27 0 -7 22 19 21 64 24 68 5z m87 -25 c12 -8 12
-10 -3 -16 -20 -7 -47 1 -47 16 0 12 30 13 50 0z m110 0 c0 -5 -9 -10 -21 -10
-11 0 -17 5 -14 10 3 6 13 10 21 10 8 0 14 -4 14 -10z m-4300 -56 c0 -26 -17
-33 -26 -9 -8 20 3 48 16 40 5 -3 10 -17 10 -31z m3800 29 c-1 -15 -35 -50
-67 -69 -18 -10 -33 -25 -33 -34 0 -9 -6 -25 -14 -36 -11 -14 -13 -37 -9 -89
l6 -70 -27 24 c-23 22 -26 32 -26 88 0 77 9 97 58 122 20 11 51 31 67 45 31
26 45 32 45 19z m-3744 -79 c-3 -9 -6 -28 -6 -42 -1 -26 -1 -26 -15 7 -20 44
-19 51 6 51 15 0 19 -4 15 -16z m3994 -16 c0 -6 -7 -20 -17 -30 -31 -35 -47
-14 -16 22 20 22 33 26 33 8z m-1860 -342 c0 -8 -4 -18 -10 -21 -5 -3 -10 3
-10 14 0 12 5 21 10 21 6 0 10 -6 10 -14z m-1832 -98 c-4 -46 -28 -49 -28 -4
0 26 4 36 16 36 11 0 14 -8 12 -32z m32 -157 c0 -9 -4 -21 -9 -26 -5 -6 -25
-40 -45 -76 -29 -55 -37 -82 -42 -150 l-7 -82 -17 42 c-27 70 -3 157 75 274
30 45 45 51 45 18z m-160 -121 c0 -22 -4 -40 -10 -40 -11 0 -14 63 -3 73 11
12 13 8 13 -33z m3280 -262 c0 -5 9 -21 20 -35 11 -14 20 -32 20 -39 0 -21
-23 -6 -42 27 -19 33 -24 74 -8 64 6 -3 10 -11 10 -17z m-3032 -69 c-2 -6 -8
-10 -13 -10 -5 0 -11 4 -13 10 -2 6 4 11 13 11 9 0 15 -5 13 -11z m114 -101
c-7 -7 -12 -18 -12 -26 0 -10 16 -12 80 -8 44 4 89 11 99 18 10 6 27 8 37 4
17 -7 18 -8 3 -19 -9 -7 -18 -21 -21 -32 -3 -18 -10 -20 -78 -17 -124 6 -155
14 -158 40 -5 36 5 52 35 52 21 0 24 -3 15 -12z m3022 -4 c9 -8 13 -20 10 -26
-4 -6 -11 -3 -17 8 -6 11 -15 22 -21 26 -8 5 -7 8 1 8 6 0 19 -7 27 -16z
m-2718 -66 c33 -32 32 -74 -1 -50 -17 12 -44 59 -38 66 10 9 13 8 39 -16z
m-61 -25 c-4 -10 -10 -27 -13 -38 -5 -18 -4 -18 12 -6 21 18 30 9 22 -24 -7
-29 -33 -33 -43 -7 -4 9 -15 26 -25 36 -24 26 -23 35 5 46 36 14 50 12 42 -7z
m115 -78 c0 -9 -9 -15 -25 -15 -16 0 -25 -6 -25 -15 0 -8 -4 -15 -10 -15 -5 0
-10 -7 -10 -16 0 -14 3 -14 16 -3 13 10 17 10 25 -2 15 -22 5 -120 -14 -134
-16 -11 -15 -13 1 -29 10 -9 26 -16 35 -16 33 0 28 -40 -10 -78 -7 -7 -13 -20
-13 -27 0 -20 -49 -55 -77 -55 -36 0 -97 -35 -113 -64 -7 -14 -17 -26 -22 -26
-5 0 -20 -12 -33 -26 -24 -26 -49 -25 -38 1 3 10 -1 15 -11 15 -25 0 -29 25
-13 77 8 26 18 66 21 89 7 48 28 94 56 119 11 10 20 24 20 31 0 18 48 30 63
15 6 -6 14 -11 18 -11 12 0 42 54 45 80 8 73 19 95 54 107 47 16 60 16 60 -2z
m2770 -90 c0 -8 -4 -15 -10 -15 -5 0 -10 7 -10 15 0 8 5 15 10 15 6 0 10 -7
10 -15z m-240 -326 c0 -7 -12 -23 -26 -36 -22 -20 -35 -24 -68 -20 -24 2 -53
-2 -69 -10 -31 -16 -133 -14 -130 2 1 6 22 12 47 15 24 3 51 12 60 20 10 8 38
13 68 12 30 0 60 5 72 14 25 17 46 18 46 3z"/>
<path d="M4052 4353 c-41 -65 -82 -122 -110 -153 -12 -14 -32 -44 -43 -67 -11
-24 -25 -45 -30 -49 -12 -7 -12 -44 0 -44 5 0 14 12 19 28 6 15 29 47 51 72
38 42 131 173 131 185 0 3 9 14 20 25 11 11 20 27 20 35 0 30 -29 14 -58 -32z"/>
<path d="M4230 3956 c-11 -29 -5 -52 14 -59 24 -9 35 7 27 42 -8 43 -28 51
-41 17z"/>
<path d="M2996 1173 c-3 -3 -6 -16 -6 -28 0 -13 -7 -28 -15 -35 -16 -14 -21
-60 -6 -60 5 0 12 13 16 29 3 16 13 35 21 42 8 6 14 20 14 30 0 19 -13 32 -24
22z"/>
</g>
</svg>
